{"glyphs":{"0":{"ha":735,"x_min":0,"x_max":0,"o":"m 543 589 b 367 26 543 275 488 25 b 192 593 246 28 192 278 b 367 1133 192 904 246 1136 b 543 589 488 1132 543 906 z m 367 1181 b 22 592 171 1181 22 999 b 367 -21 22 185 172 -21 b 713 592 561 -21 713 185 b 367 1181 713 1003 561 1181 z "},"1":{"ha":381,"x_min":0,"x_max":0,"o":"m 13 1082 b 85 1093 31 1076 63 1093 b 103 1083 92 1093 99 1090 b 126 349 129 1019 128 536 b 106 54 126 285 129 103 b 49 33 99 40 68 35 l 49 0 l 369 0 l 369 33 b 313 54 351 35 319 40 b 293 349 290 103 292 285 l 296 1169 b 11 1117 194 1169 69 1122 z "},"2":{"ha":774,"x_min":0,"x_max":0,"o":"m 661 0 l 675 297 l 649 297 b 544 168 635 221 632 168 l 168 168 b 660 896 356 440 674 596 b 388 1179 651 1061 536 1179 b 96 907 221 1179 119 1046 l 139 907 b 350 1113 169 1026 251 1114 b 467 885 440 1110 474 1014 b 25 31 451 607 133 222 l 25 0 z "},"3":{"ha":678,"x_min":0,"x_max":0,"o":"m 235 586 b 340 632 275 617 310 632 b 481 364 456 632 479 450 b 272 22 483 168 426 13 b 90 278 110 33 192 278 b 15 204 47 278 15 249 b 275 -14 15 122 117 -7 b 661 367 435 -21 658 93 b 385 697 663 576 533 697 b 567 978 463 735 575 831 b 343 1182 558 1128 432 1182 b 67 921 207 1182 99 1057 l 110 915 b 297 1117 139 1014 218 1117 b 304 1117 299 1117 301 1117 b 386 944 372 1111 392 1024 b 217 618 378 831 315 683 z "},"4":{"ha":706,"x_min":0,"x_max":0,"o":"m 421 1076 b 418 501 421 876 415 700 l 85 499 z m 396 54 b 339 33 389 40 357 35 l 339 0 l 660 0 l 660 33 b 603 54 642 35 610 40 b 582 450 575 111 582 361 l 719 450 l 719 497 l 582 497 l 582 1171 l 422 1169 l 21 479 l 21 450 l 418 450 b 396 54 418 374 421 107 z "},"5":{"ha":664,"x_min":0,"x_max":0,"o":"m 81 279 b 28 151 47 276 -8 246 b 294 -18 68 43 178 -18 b 646 381 472 -18 646 124 b 336 706 646 593 526 706 b 125 626 260 706 194 676 l 168 965 l 596 965 l 599 1239 l 569 1239 b 365 1125 560 1146 465 1125 b 146 1136 281 1125 190 1140 l 75 582 l 101 553 b 324 665 156 599 244 665 b 474 378 463 665 475 464 b 276 19 472 214 417 19 b 90 279 100 25 197 279 b 81 279 88 279 83 279 z "},"6":{"ha":685,"x_min":0,"x_max":0,"o":"m 190 346 b 189 357 190 350 190 354 b 188 383 189 367 188 375 b 342 682 179 544 249 679 b 493 350 435 685 493 554 b 349 24 493 264 476 24 b 190 347 260 24 208 165 z m 333 -17 b 660 351 510 -17 646 135 b 403 733 675 568 560 733 b 188 614 314 733 239 685 b 407 1140 206 881 282 1138 b 557 904 526 1144 440 914 b 631 988 601 901 629 933 b 399 1182 636 1096 522 1182 b 388 1182 394 1182 392 1182 b 28 549 178 1172 40 929 b 333 -17 15 201 121 -17 z "},"7":{"ha":583,"x_min":0,"x_max":0,"o":"m 26 901 l 58 901 b 222 1018 71 1001 149 1018 b 324 1014 260 1018 297 1014 b 503 1007 379 1014 444 1010 b 140 63 358 810 133 369 b 214 -15 142 15 167 -15 b 292 67 271 -15 292 32 b 267 249 292 117 268 153 b 556 1007 261 504 419 815 l 568 1169 l 31 1168 z "},"8":{"ha":672,"x_min":0,"x_max":0,"o":"m 283 549 b 488 261 383 482 482 413 b 346 19 490 168 464 19 b 190 353 228 19 176 186 b 283 549 193 389 211 481 z m 460 907 b 401 690 457 863 461 775 b 208 939 308 758 221 824 b 329 1146 200 1019 218 1138 b 460 907 457 1156 464 969 z m 446 658 b 607 919 532 713 606 792 b 346 1181 610 1099 478 1181 b 60 869 181 1181 60 1053 b 242 576 58 715 146 642 b 33 278 132 525 38 428 b 333 -15 28 101 157 -15 b 340 -15 336 -15 338 -15 b 647 326 533 -12 654 125 b 446 658 640 493 546 582 z "},"9":{"ha":814,"x_min":0,"x_max":0,"o":"m 506 747 b 347 483 504 658 464 483 b 197 815 254 483 197 614 b 342 1142 197 901 214 1142 b 506 747 443 1142 496 963 z m 358 1182 b 31 814 182 1182 46 1031 b 289 432 17 597 132 432 b 504 551 378 432 453 482 b 285 25 486 285 410 28 b 135 261 165 21 250 251 b 60 178 90 264 63 231 b 299 -17 56 68 171 -17 b 664 617 601 -17 656 390 b 358 1182 676 964 569 1182 z "},"\u0000":{"ha":0,"x_min":0,"x_max":0,"o":""},"\r":{"ha":347,"x_min":0,"x_max":0,"o":""}," ":{"ha":211,"x_min":0,"x_max":0,"o":""},"!":{"ha":372,"x_min":0,"x_max":0,"o":"m 181 1185 b 81 1038 113 1185 81 1117 b 157 265 81 788 151 628 l 201 265 b 279 1038 204 628 279 785 b 181 1185 279 1118 251 1185 z m 176 167 b 94 76 129 167 94 126 b 176 -15 94 25 128 -15 b 258 76 224 -15 258 22 b 176 167 258 126 224 167 z "},"\"":{"ha":411,"x_min":0,"x_max":0,"o":"m 40 1063 b 100 789 40 953 82 896 l 124 789 b 182 1063 139 896 182 953 b 117 1139 182 1096 168 1139 b 40 1063 68 1139 40 1110 z m 228 1063 b 288 789 228 953 269 896 l 311 789 b 369 1063 326 896 369 953 b 304 1139 369 1096 356 1139 b 228 1063 256 1139 228 1110 z "},"#":{"ha":1058,"x_min":0,"x_max":0,"o":"m 401 360 l 485 589 l 728 589 l 644 360 z m 125 293 l 265 293 l 139 -56 l 250 -56 l 376 293 l 619 293 l 496 -46 l 608 -46 l 732 293 l 963 293 l 963 360 l 757 360 l 840 589 l 1024 589 l 1024 656 l 864 656 l 983 982 l 871 982 l 751 656 l 510 656 l 625 972 l 514 972 l 399 656 l 186 656 l 186 589 l 374 589 l 290 360 l 125 360 z "},"$":{"ha":676,"x_min":0,"x_max":0,"o":"m 361 503 b 474 297 419 454 464 392 b 361 64 485 188 442 93 z m 306 778 b 197 954 246 826 201 881 b 306 1119 190 1038 236 1103 z m 306 1171 b 38 869 158 1160 35 1040 b 306 544 42 688 183 628 l 306 56 b 67 429 178 57 68 208 l 31 431 b 33 21 32 422 32 29 l 64 21 l 75 83 b 306 0 143 26 217 0 l 306 -122 l 361 -122 l 361 4 b 654 363 526 32 665 171 b 361 736 644 558 488 646 l 361 1122 b 560 778 449 1111 513 1025 l 586 778 b 582 1149 585 786 583 1140 l 551 1147 l 540 1099 b 361 1169 501 1122 442 1160 l 361 1281 l 306 1281 z "},"%":{"ha":1050,"x_min":0,"x_max":0,"o":"m 546 243 b 782 -56 546 103 619 -56 b 1015 243 946 -56 1015 103 b 782 549 1015 385 946 549 b 546 243 619 549 546 388 z m 689 243 b 782 524 689 354 707 524 b 872 243 864 524 872 329 b 782 -26 872 129 860 -26 b 689 243 703 -26 689 161 z m 161 -64 b 232 -64 174 -64 218 -64 b 915 1169 368 181 803 967 b 844 1169 904 1169 858 1169 b 161 -64 711 928 275 140 z m 47 856 b 283 557 47 715 121 557 b 517 856 447 557 517 715 b 283 1161 517 997 447 1161 b 47 856 121 1161 47 1000 z m 190 856 b 283 1136 190 967 208 1136 b 374 856 365 1136 374 942 b 283 586 374 742 361 586 b 190 856 204 586 190 774 z "},"&":{"ha":1194,"x_min":0,"x_max":0,"o":"m 321 582 b 661 64 389 422 533 178 b 492 24 610 36 550 24 b 229 349 268 24 222 231 b 321 582 235 421 261 511 z m 442 735 b 397 1032 404 836 385 938 b 472 1133 404 1090 424 1140 b 522 974 522 1125 525 1051 b 442 735 521 922 511 804 z m 624 515 b 653 539 624 515 661 521 b 694 674 625 606 650 660 b 750 676 714 679 732 679 b 756 675 753 676 754 676 b 839 508 821 660 829 610 b 783 181 851 368 829 260 b 467 674 671 301 531 528 b 676 974 592 732 678 846 b 478 1176 676 1111 582 1176 b 244 981 358 1176 265 1097 b 294 646 229 889 246 778 b 46 322 129 581 58 486 b 460 -33 32 139 136 -36 b 703 29 550 -33 632 -10 b 914 -44 765 -17 835 -44 b 1006 -32 943 -44 974 -40 b 1174 168 1088 -8 1160 78 l 1149 174 b 1064 78 1121 106 1094 92 b 990 61 1039 67 1015 61 b 835 131 939 61 888 86 b 999 490 932 231 990 364 b 992 682 1006 578 999 642 b 1060 1193 1174 774 1185 1056 b 950 1257 1017 1239 986 1257 b 853 1185 901 1257 867 1235 b 938 1042 828 1103 886 1042 b 969 1051 949 1042 960 1044 b 1039 1086 992 1067 1015 1086 b 1090 1025 1058 1086 1076 1071 b 921 790 1129 897 1025 800 b 772 799 874 786 825 799 b 671 778 740 799 707 794 b 624 515 596 743 568 596 z "},"∫":{"ha":1194,"x_min":0,"x_max":0,"o":"m 321 582 b 661 64 389 422 533 178 b 492 24 610 36 550 24 b 229 349 268 24 222 231 b 321 582 235 421 261 511 z m 442 735 b 397 1032 404 836 385 938 b 472 1133 404 1090 424 1140 b 522 974 522 1125 525 1051 b 442 735 521 922 511 804 z m 624 515 b 653 539 624 515 661 521 b 694 674 625 606 650 660 b 750 676 714 679 732 679 b 756 675 753 676 754 676 b 839 508 821 660 829 610 b 783 181 851 368 829 260 b 467 674 671 301 531 528 b 676 974 592 732 678 846 b 478 1176 676 1111 582 1176 b 244 981 358 1176 265 1097 b 294 646 229 889 246 778 b 46 322 129 581 58 486 b 460 -33 32 139 136 -36 b 703 29 550 -33 632 -10 b 914 -44 765 -17 835 -44 b 1006 -32 943 -44 974 -40 b 1174 168 1088 -8 1160 78 l 1149 174 b 1064 78 1121 106 1094 92 b 990 61 1039 67 1015 61 b 835 131 939 61 888 86 b 999 490 932 231 990 364 b 992 682 1006 578 999 642 b 1060 1193 1174 774 1185 1056 b 950 1257 1017 1239 986 1257 b 853 1185 901 1257 867 1235 b 938 1042 828 1103 886 1042 b 969 1051 949 1042 960 1044 b 1039 1086 992 1067 1015 1086 b 1090 1025 1058 1086 1076 1071 b 921 790 1129 897 1025 800 b 772 799 874 786 825 799 b 671 778 740 799 707 794 b 624 515 596 743 568 596 z "},"'":{"ha":224,"x_min":0,"x_max":0,"o":"m 40 1063 b 100 789 40 953 82 896 l 124 789 b 182 1063 139 896 182 953 b 117 1139 182 1096 168 1139 b 40 1063 68 1139 40 1110 z "},"(":{"ha":369,"x_min":0,"x_max":0,"o":"m 340 -89 b 201 540 247 51 201 257 b 340 1186 201 831 247 1043 l 322 1204 b 40 554 146 1082 40 838 b 321 -108 40 263 157 -14 z "},")":{"ha":371,"x_min":0,"x_max":0,"o":"m 21 -89 l 40 -108 b 321 554 244 22 321 328 b 39 1204 321 790 242 1063 l 21 1186 b 160 540 114 1043 160 831 b 21 -89 160 257 114 51 z "},"*":{"ha":608,"x_min":0,"x_max":0,"o":"m 269 840 b 247 685 263 792 247 733 b 281 644 247 660 263 649 b 292 643 285 644 288 643 b 303 644 296 643 300 643 b 347 685 326 646 347 653 b 326 840 347 733 333 792 b 443 746 343 826 404 764 b 460 742 450 743 456 742 b 489 757 471 742 481 747 b 503 778 494 763 500 771 b 508 801 506 786 508 794 b 490 833 508 815 500 826 b 479 839 486 835 483 838 l 354 893 l 481 951 b 507 1000 507 964 507 975 b 497 1024 506 1008 501 1017 b 451 1047 482 1046 475 1047 b 326 950 414 1036 344 965 b 347 1107 333 1000 347 1058 b 314 1146 347 1131 332 1143 b 303 1147 311 1147 307 1147 b 292 1147 299 1147 296 1147 b 247 1107 269 1146 247 1139 b 269 950 247 1058 263 1000 b 154 1043 251 965 193 1025 b 136 1049 147 1046 140 1049 b 99 1024 122 1049 108 1038 b 93 1013 97 1019 94 1017 b 88 989 90 1004 88 996 b 117 951 88 974 103 956 l 242 893 l 117 839 b 106 833 113 838 110 835 b 88 801 96 826 88 815 b 93 778 88 794 90 786 b 107 757 96 771 101 763 b 136 742 115 747 125 742 b 144 743 139 742 142 742 b 269 840 182 754 250 825 z "},"+":{"ha":813,"x_min":0,"x_max":0,"o":"m 363 808 l 363 590 l 160 589 l 160 490 l 363 492 l 363 272 l 450 272 l 450 492 l 653 493 l 653 592 l 450 590 l 450 810 z "},",":{"ha":285,"x_min":0,"x_max":0,"o":"m 160 7 b 81 -108 167 -31 135 -75 l 94 -140 b 258 67 175 -108 251 -29 b 178 189 263 131 224 185 b 171 189 175 189 174 189 b 83 103 132 189 90 158 b 160 7 78 53 104 10 z "},"-":{"ha":435,"x_min":0,"x_max":0,"o":"m 356 368 l 356 472 l 60 472 l 60 368 z "},".":{"ha":271,"x_min":0,"x_max":0,"o":"m 157 171 b 68 79 107 171 68 131 b 157 -14 68 26 104 -14 b 247 79 208 -14 247 25 b 157 171 247 131 208 171 z "},"/":{"ha":671,"x_min":0,"x_max":0,"o":"m 186 -75 l 626 1265 l 546 1265 l 104 -75 z "},":":{"ha":307,"x_min":0,"x_max":0,"o":"m 147 675 b 61 583 99 675 61 635 b 147 494 61 533 97 494 b 235 583 197 494 235 532 b 147 675 235 635 197 675 z m 147 339 b 61 247 99 339 61 299 b 147 158 61 197 97 158 b 235 247 197 158 235 196 b 147 339 235 299 197 339 z "},";":{"ha":285,"x_min":0,"x_max":0,"o":"m 164 -11 b 85 -126 171 -49 139 -93 l 99 -158 b 253 50 179 -126 247 -44 b 182 171 257 114 228 167 b 88 85 142 175 94 143 b 164 -11 82 35 108 -8 z m 175 481 b 93 390 128 481 93 440 b 175 299 93 339 126 299 b 257 390 221 299 257 336 b 175 481 257 440 221 481 z "},"<":{"ha":743,"x_min":0,"x_max":0,"o":"m 658 286 l 247 488 l 658 689 l 658 799 l 107 524 l 107 450 l 658 174 z "},"=":{"ha":733,"x_min":0,"x_max":0,"o":"m 118 594 l 613 594 l 613 692 l 118 692 z m 118 483 l 118 388 l 613 388 l 613 483 z "},">":{"ha":743,"x_min":0,"x_max":0,"o":"m 636 451 l 636 524 l 85 800 l 85 689 l 496 489 l 85 286 l 85 174 z "},"?":{"ha":529,"x_min":0,"x_max":0,"o":"m 199 240 l 247 240 l 247 283 b 547 906 244 504 549 633 b 269 1189 547 1068 439 1189 b 21 978 140 1189 24 1122 b 103 854 19 931 43 865 b 117 853 107 853 113 853 b 182 957 165 853 197 900 b 126 1061 169 1004 115 1022 b 235 1135 144 1119 196 1135 b 256 1133 240 1135 247 1135 b 367 854 363 1118 371 951 b 199 293 351 563 199 510 z m 226 165 b 144 75 179 165 144 125 b 226 -17 144 24 178 -17 b 308 75 274 -17 308 21 b 226 165 308 125 274 165 z "},"@":{"ha":1239,"x_min":0,"x_max":0,"o":"m 554 176 b 476 513 468 181 467 393 b 643 826 483 617 500 826 b 696 728 692 826 696 788 b 685 375 696 653 700 474 b 558 176 671 289 628 176 b 554 176 557 176 556 176 z m 842 772 b 626 861 842 819 729 861 b 322 514 474 861 349 769 b 536 135 299 279 401 135 b 704 281 631 135 668 203 b 871 103 718 171 753 103 b 1182 647 1081 103 1196 357 b 625 1218 1164 1017 953 1218 b 31 519 236 1218 43 933 b 596 -281 17 44 250 -274 b 1132 93 843 -285 1051 -142 l 1089 94 b 625 -228 1017 -90 836 -228 b 161 513 253 -228 161 219 b 644 1175 161 826 274 1175 b 1040 568 835 1175 1046 1067 b 888 136 1040 479 1043 135 b 836 397 821 136 835 224 z "},"A":{"ha":804,"x_min":0,"x_max":0,"o":"m 274 501 b 351 835 296 599 324 721 b 428 501 379 721 406 601 z m 440 444 b 461 349 447 408 454 375 b 510 53 475 285 522 101 b 433 32 506 39 453 33 l 433 0 l 785 0 l 785 32 b 728 53 765 33 738 39 b 636 349 693 101 650 285 l 451 1169 l 361 1169 l 176 349 b 85 53 163 285 119 101 b 22 32 74 39 42 33 l 24 0 l 251 0 l 251 32 b 190 53 233 33 193 39 b 239 349 176 101 225 285 b 261 444 244 374 251 406 z "},"B":{"ha":694,"x_min":0,"x_max":0,"o":"m 338 585 b 504 319 429 588 504 499 b 344 42 504 135 432 42 l 304 42 b 269 79 282 42 269 54 l 269 349 l 271 583 z m 318 1128 b 458 900 390 1128 461 1040 b 321 642 456 740 386 643 l 271 642 l 272 1097 b 301 1128 272 1118 282 1128 z m 11 1136 b 78 1111 49 1139 68 1132 b 101 349 107 1050 103 536 b 78 53 101 189 92 83 b 21 32 72 42 51 33 l 22 0 l 400 0 b 675 322 554 0 675 121 b 414 617 675 518 568 618 b 626 900 539 650 626 738 b 263 1169 626 1076 503 1167 l 217 1171 l 11 1169 z "},"C":{"ha":686,"x_min":0,"x_max":0,"o":"m 371 -21 b 672 363 568 -17 640 168 l 626 363 b 371 44 572 107 482 36 b 204 593 257 53 204 278 b 371 1135 204 904 243 1125 b 579 813 460 1142 578 992 l 617 813 l 622 1181 l 589 1181 l 568 1110 b 371 1181 513 1164 446 1181 b 22 592 175 1181 22 999 b 371 -21 22 185 176 -25 z "},"D":{"ha":785,"x_min":0,"x_max":0,"o":"m 333 1129 b 576 590 574 1128 578 797 b 333 40 576 385 574 42 l 271 40 l 271 349 l 274 1129 z m 11 1136 b 78 1111 35 1139 65 1139 b 101 349 107 1050 103 536 b 79 53 101 285 103 101 b 13 32 72 39 32 33 l 13 0 l 336 0 b 761 590 683 0 761 344 b 336 1169 761 836 683 1174 l 11 1169 z "},"E":{"ha":683,"x_min":0,"x_max":0,"o":"m 256 585 b 438 572 354 583 407 582 b 501 367 486 554 493 394 l 535 369 b 535 851 532 500 532 721 l 501 854 b 438 649 493 826 486 665 b 257 635 407 638 354 638 b 278 1088 257 828 265 1010 b 319 1122 281 1110 296 1122 b 528 1101 419 1119 501 1115 b 607 879 553 1085 597 907 l 639 889 b 633 1169 638 954 633 1096 l 11 1169 l 11 1138 b 64 1117 28 1136 54 1133 b 88 586 93 1067 88 800 b 64 53 88 372 93 103 b 11 32 54 36 28 33 l 11 0 l 263 0 l 649 -1 b 669 296 649 74 668 231 l 636 306 b 544 72 628 278 568 89 b 321 50 518 58 424 53 b 278 85 296 50 281 63 b 256 585 265 168 256 374 z "},"F":{"ha":649,"x_min":0,"x_max":0,"o":"m 278 1083 b 321 1118 282 1106 297 1118 b 524 1101 421 1115 497 1115 b 603 879 549 1085 593 907 l 635 889 b 635 1169 633 954 635 1096 l 11 1169 l 11 1138 b 64 1117 28 1136 54 1133 b 88 586 93 1067 88 800 b 64 53 88 504 96 108 b 11 32 54 36 28 33 l 11 0 l 368 0 l 368 32 b 289 53 351 33 299 36 b 257 585 260 103 257 507 b 444 567 364 583 414 582 b 496 367 478 550 488 394 l 529 369 b 529 851 526 500 526 721 l 496 854 b 444 653 488 826 478 671 b 257 635 414 639 364 638 b 278 1083 258 832 267 1007 z "},"G":{"ha":760,"x_min":0,"x_max":0,"o":"m 22 589 b 369 -24 22 182 139 -24 b 671 142 500 -24 629 43 l 676 378 b 699 513 679 458 686 492 b 750 533 708 531 733 533 l 750 583 l 407 583 l 406 533 b 501 513 422 533 492 531 b 525 263 531 464 525 310 b 375 32 525 171 481 29 b 201 589 239 35 201 272 b 403 1119 201 894 278 1119 b 590 799 539 1119 581 897 l 633 800 l 646 1178 l 607 1178 l 583 1103 b 376 1178 528 1158 451 1178 b 22 589 192 1178 22 996 z "},"H":{"ha":786,"x_min":0,"x_max":0,"o":"m 531 590 l 531 585 b 507 54 531 369 538 106 b 454 33 497 38 471 35 l 454 0 l 775 0 l 775 33 b 722 54 758 35 732 38 b 700 582 690 107 700 367 b 722 1115 700 781 690 1063 b 775 1136 732 1132 758 1135 l 775 1169 l 454 1169 l 454 1136 b 507 1115 471 1135 497 1132 b 531 646 533 1069 532 833 l 256 646 b 278 1115 254 836 250 1068 b 331 1136 288 1132 314 1135 l 331 1169 l 10 1169 l 10 1136 b 63 1115 26 1135 53 1132 b 86 585 93 1065 86 776 b 63 54 86 369 93 106 b 10 33 53 38 26 35 l 10 0 l 331 0 l 331 33 b 278 54 314 35 288 38 b 256 582 246 107 256 367 b 256 590 256 585 256 588 z "},"I":{"ha":342,"x_min":0,"x_max":0,"o":"m 10 1138 b 63 1115 26 1136 53 1132 b 86 585 93 1065 86 776 b 63 54 86 369 93 106 b 10 31 53 38 26 32 l 10 0 l 331 0 l 331 33 b 278 54 314 33 288 38 b 256 582 246 107 256 367 b 278 1115 256 781 246 1063 b 331 1138 288 1132 314 1136 l 331 1169 l 10 1169 z "},"J":{"ha":374,"x_min":0,"x_max":0,"o":"m 32 1138 b 90 1113 49 1136 81 1129 b 117 419 119 1063 118 611 b -35 -110 114 240 128 -78 l -18 -147 b 283 203 138 -115 276 -53 b 303 1114 293 571 271 1061 b 358 1138 313 1131 342 1136 l 358 1171 l 32 1169 z "},"K":{"ha":824,"x_min":0,"x_max":0,"o":"m 10 1138 b 63 1117 26 1136 53 1133 b 86 585 93 1067 86 776 b 63 54 86 369 93 106 b 10 33 53 38 26 33 l 10 0 l 332 0 l 332 33 b 279 54 315 33 289 38 b 256 471 253 99 254 286 l 311 560 b 418 333 367 443 389 396 b 539 53 447 274 540 99 b 474 33 538 39 493 35 l 474 0 l 825 0 l 825 33 b 767 53 806 35 781 39 b 607 335 721 99 636 274 l 418 733 l 486 842 b 685 1125 522 901 629 1079 b 764 1136 701 1139 742 1136 l 764 1169 l 488 1169 l 488 1138 b 564 1133 515 1136 563 1140 b 414 842 575 1089 453 901 b 257 586 379 786 324 693 b 279 1117 257 785 247 1064 b 332 1138 289 1133 315 1136 l 332 1169 l 10 1169 z "},"L":{"ha":647,"x_min":0,"x_max":0,"o":"m 313 54 b 269 90 292 54 274 69 b 249 592 257 176 249 379 b 279 1117 249 667 250 1067 b 332 1138 289 1133 315 1136 l 332 1169 l 10 1169 l 10 1138 b 63 1117 26 1136 53 1133 b 86 586 96 1061 86 669 b 63 53 86 372 92 103 b 10 32 53 36 26 33 l 10 0 l 256 0 l 613 -1 b 633 296 613 74 632 231 l 601 310 b 515 82 593 282 539 99 b 313 54 489 68 429 57 z "},"M":{"ha":1028,"x_min":0,"x_max":0,"o":"m 64 1117 b 86 585 93 1067 86 776 b 64 53 86 369 93 103 b 10 32 54 36 26 33 l 10 0 l 221 0 l 221 32 b 168 53 204 33 178 36 b 146 582 136 106 147 367 l 143 1006 l 435 0 l 485 0 l 765 1060 b 775 572 779 954 775 729 b 753 54 775 357 782 106 b 699 33 743 38 715 35 l 699 1 l 1017 1 l 1017 33 b 964 54 1000 35 974 38 b 942 569 932 107 942 354 b 964 1117 942 768 932 1064 b 1017 1138 974 1133 1000 1136 l 1017 1169 l 735 1169 l 514 342 l 276 1169 l 10 1169 l 10 1138 b 64 1117 26 1136 54 1133 z "},"N":{"ha":775,"x_min":0,"x_max":0,"o":"m 526 1138 b 593 1115 543 1136 583 1132 b 617 585 622 1065 617 776 l 617 351 l 240 1169 l 10 1169 l 10 1138 b 76 1115 26 1136 68 1132 b 100 585 104 1065 100 776 b 76 54 100 369 107 106 b 10 33 67 38 26 33 l 10 0 l 263 0 l 263 33 b 182 54 246 33 192 38 b 160 582 150 107 160 367 l 160 921 l 592 0 l 675 0 l 675 582 b 699 1115 675 781 667 1063 b 765 1138 708 1132 749 1136 l 765 1169 l 526 1169 z "},"O":{"ha":735,"x_min":0,"x_max":0,"o":"m 531 589 b 367 26 531 275 488 25 b 204 593 246 28 204 278 b 367 1133 204 904 246 1136 b 531 589 488 1132 531 906 z m 367 1181 b 22 592 171 1181 22 999 b 367 -21 22 185 172 -21 b 713 592 561 -21 713 185 b 367 1181 713 1003 561 1181 z "},"P":{"ha":688,"x_min":0,"x_max":0,"o":"m 314 1126 b 497 868 458 1131 496 1032 b 325 588 500 722 449 586 l 254 588 l 251 529 l 371 531 b 671 869 557 533 671 672 b 328 1169 671 1068 551 1168 l 276 1171 l 11 1169 l 11 1136 b 78 1111 49 1139 68 1132 b 103 450 96 1075 104 856 l 274 443 l 276 1096 b 306 1126 276 1117 286 1126 z m 103 450 b 81 53 103 246 107 99 b 22 32 74 42 53 33 l 22 0 l 350 0 l 350 32 b 296 53 321 33 303 42 b 274 443 267 101 272 242 z "},"Q":{"ha":735,"x_min":0,"x_max":0,"o":"m 531 589 b 367 26 531 275 488 25 b 204 593 246 28 204 278 b 367 1133 204 904 246 1136 b 531 589 488 1132 531 906 z m 367 1181 b 22 592 171 1181 22 999 b 367 -21 22 185 172 -21 b 713 592 561 -21 713 185 b 367 1181 713 1003 561 1181 z m 121 -258 b 303 -156 168 -178 233 -156 b 542 -190 389 -156 479 -190 b 594 -175 563 -190 581 -186 b 610 21 667 -117 636 -22 l 582 13 b 593 -33 589 0 599 -17 b 535 -58 586 -53 565 -58 b 340 -42 485 -58 411 -42 b 169 -128 271 -42 203 -58 z "},"R":{"ha":768,"x_min":0,"x_max":0,"o":"m 331 1118 b 494 900 456 1131 494 1008 b 333 643 494 783 460 644 l 269 643 l 271 1088 b 300 1118 271 1106 282 1118 z m 442 611 b 665 900 572 639 669 728 b 332 1169 660 1060 582 1167 l 271 1171 l 11 1169 l 11 1136 b 78 1111 35 1139 65 1139 b 101 393 106 1054 103 608 b 101 349 101 376 101 361 b 81 53 101 285 104 101 b 28 32 74 39 46 33 l 28 0 l 343 0 l 343 32 b 290 53 325 33 297 39 b 269 349 267 101 269 285 b 268 393 269 361 268 376 l 268 597 b 538 13 539 526 429 94 b 611 -12 561 -6 586 -12 b 767 79 678 -12 743 38 l 753 117 b 710 79 742 101 731 79 b 442 611 603 79 693 597 z "},"S":{"ha":639,"x_min":0,"x_max":0,"o":"m 24 472 b 26 0 25 464 25 8 l 61 0 l 68 63 b 294 -19 117 21 196 -19 b 301 -19 297 -19 299 -19 b 607 340 482 -15 614 128 b 210 972 596 696 210 729 b 336 1139 210 1064 265 1138 b 542 735 449 1140 525 971 l 586 731 b 582 1164 585 739 583 1156 l 550 1164 l 540 1114 b 325 1186 496 1140 425 1186 b 56 892 169 1186 53 1067 b 436 289 61 594 408 594 b 308 42 449 150 388 51 b 292 39 301 40 296 39 b 69 472 178 39 74 217 z "},"T":{"ha":679,"x_min":0,"x_max":0,"o":"m 200 1135 b 243 1101 224 1138 239 1125 b 257 585 261 1003 257 749 b 233 53 257 369 263 103 b 181 32 224 36 197 33 l 181 0 l 500 0 l 501 32 b 447 53 485 33 458 36 b 425 582 417 106 425 367 b 438 1101 425 753 418 1003 b 475 1135 442 1122 456 1135 b 597 1043 538 1135 582 1100 b 629 847 629 943 622 878 l 663 858 b 656 1169 661 924 656 1096 l 24 1169 b 18 858 24 1096 19 924 l 51 847 b 83 1043 58 878 58 960 b 200 1135 93 1078 101 1121 z "},"U":{"ha":767,"x_min":0,"x_max":0,"o":"m 93 585 b 388 -19 93 311 75 -19 b 675 582 694 -19 675 313 b 674 747 675 633 674 690 b 697 1117 672 917 674 1076 b 750 1138 707 1133 733 1136 l 750 1169 l 542 1169 l 542 1138 b 594 1117 558 1136 585 1133 b 619 715 618 1076 621 892 b 619 585 619 669 619 624 b 590 197 619 433 618 300 b 428 50 569 114 522 50 b 260 582 242 50 260 374 b 282 1117 260 781 250 1064 b 333 1138 292 1133 317 1136 l 333 1169 l 17 1169 l 17 1138 b 71 1117 33 1136 60 1133 b 93 585 100 1067 93 776 z "},"V":{"ha":794,"x_min":0,"x_max":0,"o":"m 440 0 l 625 821 b 718 1118 639 885 683 1069 b 778 1138 726 1131 753 1133 l 778 1169 l 549 1169 l 549 1138 b 611 1115 568 1136 607 1131 b 563 822 624 1067 576 885 b 450 339 542 731 497 526 b 342 822 406 518 367 707 b 293 1117 326 885 279 1068 b 368 1138 296 1132 350 1136 l 368 1169 l 17 1169 l 15 1138 b 71 1119 35 1136 61 1132 b 167 821 108 1072 153 885 l 350 0 z "},"W":{"ha":1236,"x_min":0,"x_max":0,"o":"m 799 17 b 790 0 796 11 793 6 z m 882 0 l 1065 818 b 1160 1119 1081 882 1126 1071 b 1219 1138 1169 1133 1201 1136 l 1219 1169 l 990 1169 l 990 1139 b 1053 1117 1007 1138 1050 1132 b 1004 822 1063 1068 1019 885 b 888 322 982 729 935 514 b 775 822 838 510 804 699 b 757 900 771 840 764 868 b 725 1117 739 979 718 1082 b 801 1138 729 1132 785 1136 l 801 1169 l 458 1169 l 457 1138 b 510 1124 475 1136 500 1129 b 585 917 536 1090 564 994 b 563 822 576 878 568 843 b 446 324 540 729 493 514 b 332 822 399 507 360 704 b 314 900 328 840 321 868 b 285 1117 297 979 276 1082 b 360 1138 288 1132 343 1136 l 360 1169 l 17 1169 l 15 1138 b 71 1119 33 1136 61 1135 b 167 821 104 1072 151 885 l 350 0 l 440 0 l 617 781 l 790 0 z "},"X":{"ha":794,"x_min":0,"x_max":0,"o":"m 300 583 b 81 57 215 367 122 119 b 3 33 63 32 21 33 l 3 0 l 226 0 l 226 33 b 182 56 211 33 181 32 b 336 492 185 97 261 300 b 488 72 410 304 482 117 b 446 33 492 35 463 33 l 446 0 l 781 0 l 781 33 b 701 63 764 33 718 42 b 485 582 660 119 569 367 b 467 628 479 597 472 613 b 683 1113 540 818 639 1067 b 753 1138 700 1131 724 1136 l 753 1169 l 529 1169 l 529 1138 b 572 1103 546 1136 579 1140 b 431 717 565 1054 499 888 b 292 1115 358 890 279 1074 b 367 1139 297 1136 350 1138 l 367 1169 l 1 1169 l 1 1138 b 72 1115 19 1136 56 1132 b 300 585 121 1064 225 776 z "},"Y":{"ha":788,"x_min":0,"x_max":0,"o":"m 504 529 b 722 1126 546 646 668 1089 b 774 1136 738 1136 757 1136 l 774 1169 l 543 1171 l 543 1138 b 607 1115 560 1138 603 1132 b 472 610 618 1061 539 804 b 304 1117 396 804 296 1076 b 349 1138 307 1133 333 1136 l 349 1169 l 14 1169 l 14 1138 b 75 1117 32 1136 60 1133 b 332 506 125 1067 257 697 b 311 53 333 294 339 101 b 257 32 301 36 274 33 l 258 0 l 579 0 l 579 32 b 526 53 563 33 536 36 b 504 529 497 103 501 265 z "},"Z":{"ha":692,"x_min":0,"x_max":0,"o":"m 658 1 b 676 396 658 76 675 331 l 640 403 b 540 89 631 328 582 117 b 219 56 504 72 346 61 l 697 1169 l 101 1169 b 83 811 101 1096 85 876 l 119 804 b 218 1083 129 878 176 1056 b 486 1114 250 1097 372 1107 l 10 1 z "},"[":{"ha":413,"x_min":0,"x_max":0,"o":"m 69 1174 l 69 -124 l 393 -124 l 393 -78 l 232 -78 l 232 1129 l 393 1129 l 393 1174 z "},"\\":{"ha":726,"x_min":0,"x_max":0,"o":"m 540 -75 l 622 -75 l 181 1265 l 100 1265 z "},"]":{"ha":413,"x_min":0,"x_max":0,"o":"m 343 1174 l 19 1174 l 19 1129 l 181 1129 l 181 -78 l 19 -78 l 19 -124 l 343 -124 z "},"^":{"ha":793,"x_min":0,"x_max":0,"o":"m 218 836 l 274 836 l 393 1000 l 515 836 l 569 836 l 417 1042 l 372 1042 z "},"_":{"ha":718,"x_min":0,"x_max":0,"o":"m 653 -108 l 653 -15 l 72 -15 l 72 -108 z "},"`":{"ha":317,"x_min":0,"x_max":0,"o":"m 313 936 l 194 1129 b 138 1168 179 1154 158 1168 b 89 1142 121 1168 104 1160 b 113 1024 60 1107 76 1047 l 283 908 z "},"a":{"ha":626,"x_min":0,"x_max":0,"o":"m 379 225 b 261 88 354 135 307 88 b 193 175 213 88 190 114 b 381 450 197 290 301 358 b 379 225 381 376 385 299 z m 378 92 l 376 -17 b 638 29 440 -17 575 22 l 646 68 b 633 71 643 69 639 71 b 590 65 619 71 606 65 b 568 76 582 65 574 68 b 547 533 538 128 547 453 b 544 629 547 565 546 597 b 303 864 539 794 429 864 b 19 575 156 864 19 753 b 86 518 19 551 44 518 b 189 579 131 519 171 524 b 306 808 194 706 171 804 b 381 531 383 811 381 660 b 19 164 272 396 19 369 b 183 -18 19 46 81 -18 b 378 92 278 -18 319 21 z "},"b":{"ha":661,"x_min":0,"x_max":0,"o":"m 454 425 b 338 54 454 354 450 54 b 240 251 276 54 247 107 b 242 349 240 292 242 328 l 242 425 b 338 806 250 633 236 797 b 454 425 421 813 456 706 z m 244 808 l 246 1169 b -8 1131 179 1169 50 1136 l -18 1090 b 38 1094 -1 1085 21 1094 b 60 1083 47 1094 54 1092 b 82 349 86 1019 82 536 b 61 57 82 285 85 106 b 10 38 56 46 36 39 l 13 -8 b 258 21 74 0 178 18 b 353 -6 292 0 321 -6 b 640 433 568 -6 640 261 b 371 874 640 706 536 874 b 244 808 319 874 276 850 z "},"c":{"ha":594,"x_min":0,"x_max":0,"o":"m 558 711 b 325 874 514 835 438 874 b 21 436 92 874 21 629 b 321 -28 21 201 128 -28 b 592 260 474 -28 578 118 l 550 265 b 375 67 540 183 468 67 b 208 435 264 67 208 267 b 307 829 208 575 218 821 b 410 590 407 839 351 665 b 460 568 422 575 440 568 b 558 711 517 568 583 625 z "},"d":{"ha":690,"x_min":0,"x_max":0,"o":"m 431 221 b 332 69 429 69 350 68 b 204 451 235 74 204 214 b 339 819 203 663 235 825 b 432 571 397 815 422 764 l 431 222 z m 317 874 b 22 449 150 874 32 688 b 286 -8 13 207 117 1 b 294 -8 289 -8 292 -8 b 429 65 351 -8 396 19 l 429 -3 b 686 36 496 -3 628 31 l 696 76 b 640 72 679 82 657 72 b 618 83 631 72 624 75 b 596 550 600 125 596 347 l 599 1169 b 340 1131 532 1169 399 1136 l 332 1090 b 388 1094 349 1085 371 1094 b 410 1083 397 1094 404 1092 b 429 849 421 1057 426 964 b 317 874 397 865 353 874 z "},"e":{"ha":594,"x_min":0,"x_max":0,"o":"m 410 635 b 364 582 410 604 393 582 l 201 582 b 313 825 204 650 215 825 b 410 635 407 825 408 721 z m 550 525 b 576 575 567 525 578 557 b 306 875 558 789 449 875 b 22 442 133 875 22 699 b 304 -29 22 174 126 -29 b 574 260 458 -29 558 121 l 535 268 b 358 86 522 179 456 86 b 199 442 249 86 199 231 b 199 525 199 464 199 493 z "},"f":{"ha":446,"x_min":0,"x_max":0,"o":"m 7 790 l 93 790 b 94 531 93 706 94 617 l 94 349 b 74 53 94 285 97 101 b 22 32 67 39 40 33 l 22 0 l 329 0 l 329 32 b 278 53 311 33 285 39 b 257 349 254 101 257 285 b 258 790 258 493 258 646 l 385 790 l 386 840 l 258 840 b 339 1118 256 1032 281 1124 b 410 940 415 1113 342 989 b 457 925 425 929 442 925 b 540 1036 510 925 554 978 b 364 1172 522 1108 469 1172 b 94 840 150 1172 99 1025 l 8 840 z "},"g":{"ha":667,"x_min":0,"x_max":0,"o":"m 451 567 b 319 319 451 472 449 319 b 201 571 238 319 201 396 b 326 833 201 761 236 833 b 451 567 417 833 451 760 z m 326 879 b 28 568 146 879 26 756 b 167 307 29 444 79 353 b 43 167 101 286 43 228 b 517 -107 38 -90 501 81 b 315 -261 525 -193 429 -260 b 172 -92 204 -261 149 -200 b 101 4 186 -31 143 4 b 26 -69 67 4 32 -18 b 297 -312 14 -207 124 -307 b 310 -312 301 -312 306 -312 b 625 63 547 -312 710 -128 b 165 211 544 246 193 135 b 317 271 154 243 211 263 b 326 269 319 269 324 269 b 625 568 511 269 625 385 b 568 763 625 646 604 711 b 610 814 583 775 596 792 b 651 1029 633 853 703 950 b 588 1065 635 1054 611 1065 b 513 996 551 1065 518 1040 b 553 842 504 908 569 874 b 526 810 550 835 538 821 b 326 879 475 854 407 879 z "},"h":{"ha":694,"x_min":0,"x_max":0,"o":"m -18 1090 b 36 1094 -1 1085 19 1094 b 60 1082 46 1094 54 1092 b 82 349 86 1019 82 536 b 61 53 82 285 85 101 b 10 32 54 39 28 33 l 10 0 l 317 0 l 317 32 b 265 53 299 33 272 39 b 244 349 242 101 244 285 l 244 388 l 246 524 b 364 735 253 583 281 735 b 450 576 396 735 443 706 b 453 349 453 522 453 417 b 432 53 453 285 456 101 b 381 32 425 39 399 33 l 381 0 l 688 0 l 688 32 b 636 53 669 33 643 39 b 613 614 607 115 613 456 b 442 863 613 806 521 863 b 246 685 347 861 286 779 l 249 1169 b -8 1129 182 1169 50 1136 z "},"i":{"ha":331,"x_min":0,"x_max":0,"o":"m -17 771 b 39 774 0 764 22 774 b 61 763 49 774 56 772 b 85 349 88 700 85 536 b 64 53 85 285 88 101 b 13 32 57 39 31 33 l 13 0 l 318 0 l 319 32 b 267 53 300 33 274 39 b 247 349 244 101 247 285 l 250 850 b -7 810 183 850 51 817 z m 42 1039 b 143 931 42 979 83 931 b 246 1039 200 931 246 979 b 143 1144 246 1094 200 1144 b 42 1039 83 1144 42 1094 z "},"j":{"ha":393,"x_min":0,"x_max":0,"o":"m 178 111 b 103 -271 178 10 193 -254 b 1 -121 43 -271 75 -133 b -22 -117 -7 -118 -15 -117 b -68 -239 -78 -117 -83 -200 b 51 -308 -53 -279 4 -308 b 340 208 290 -308 340 -161 l 340 443 l 343 850 b 85 810 276 850 143 817 l 75 772 b 131 775 92 765 114 775 b 153 764 140 775 149 774 b 178 413 176 708 178 576 z m 142 1039 b 243 931 142 981 183 931 b 346 1039 300 931 346 981 b 243 1144 346 1096 300 1144 b 142 1039 183 1144 142 1096 z m 78 728 b 85 728 79 728 82 728 b 78 728 82 728 81 728 z "},"k":{"ha":714,"x_min":0,"x_max":0,"o":"m 250 318 b 314 417 267 344 289 378 b 519 -4 422 275 383 38 b 574 -12 535 -10 553 -12 b 749 135 638 -12 717 21 l 715 153 b 658 69 697 107 689 72 b 424 517 554 54 544 471 b 385 519 410 522 397 522 b 688 796 485 658 607 801 l 689 840 l 399 840 l 400 800 b 478 767 461 807 493 790 b 250 417 431 693 333 549 l 253 1171 b -8 1131 186 1171 50 1136 l -18 1093 b 38 1096 -1 1086 21 1096 b 60 1085 47 1096 54 1094 b 83 349 86 1021 83 536 b 63 53 83 285 86 101 b 11 32 56 39 29 33 l 11 0 l 321 0 l 322 32 b 269 53 303 33 276 39 b 250 318 250 94 249 239 z "},"l":{"ha":326,"x_min":0,"x_max":0,"o":"m -18 1094 b 38 1097 -1 1088 21 1097 b 60 1086 47 1097 54 1096 b 83 349 86 1022 83 536 b 63 53 83 285 86 101 b 11 32 56 39 29 33 l 11 0 l 317 0 l 318 32 b 265 53 299 33 272 39 b 246 349 243 101 246 285 l 249 1171 b -8 1131 182 1171 50 1136 z "},"m":{"ha":1063,"x_min":0,"x_max":0,"o":"m 614 521 b 729 733 619 579 649 733 b 818 576 763 733 813 696 b 821 349 821 522 822 417 b 800 53 821 285 824 101 b 749 32 793 39 767 33 l 749 0 l 1056 0 l 1056 32 b 1004 53 1038 33 1011 39 b 981 614 975 115 982 456 b 810 863 981 806 890 863 b 610 674 711 861 650 772 b 443 863 593 818 514 863 b 249 688 349 861 289 781 l 250 850 b -7 810 183 850 51 815 l -17 771 b 39 774 0 764 21 774 b 61 763 49 774 56 771 b 83 349 88 699 83 536 b 63 53 83 285 86 101 b 11 32 56 39 29 33 l 11 0 l 318 0 l 318 32 b 267 53 300 33 274 39 b 246 349 243 101 246 285 l 246 388 l 247 529 b 363 733 254 586 283 733 b 451 576 396 733 446 696 b 454 349 454 522 454 417 b 433 53 454 285 457 101 b 382 32 426 39 400 33 l 382 0 l 689 0 l 689 32 b 638 53 671 33 644 39 b 614 521 613 104 613 349 z "},"n":{"ha":696,"x_min":0,"x_max":0,"o":"m -17 771 b 39 774 0 764 21 774 b 61 763 49 774 56 771 b 83 349 88 699 83 536 b 63 53 83 285 86 101 b 11 32 56 39 29 33 l 11 0 l 318 0 l 318 32 b 267 53 300 33 274 39 b 246 349 243 101 246 285 l 246 388 l 247 529 b 365 735 254 588 285 735 b 451 576 397 735 444 706 b 454 349 454 522 454 417 b 433 53 454 285 457 101 b 382 32 426 39 400 33 l 382 0 l 689 0 l 689 32 b 638 53 671 33 644 39 b 614 614 608 115 614 456 b 443 863 614 806 522 863 b 249 688 349 861 289 781 l 250 850 b -7 810 183 850 51 815 z "},"o":{"ha":656,"x_min":0,"x_max":0,"o":"m 451 433 b 328 17 451 208 435 17 b 204 433 219 17 204 206 b 328 833 204 658 219 833 b 451 433 435 833 451 661 z m 328 876 b 21 433 150 876 21 731 b 328 -26 21 136 151 -26 b 635 433 503 -26 635 136 b 328 876 635 735 503 876 z "},"p":{"ha":700,"x_min":0,"x_max":0,"o":"m 269 431 b 271 517 271 463 271 490 l 271 631 b 386 801 278 699 299 801 b 490 449 488 801 486 585 b 371 43 494 272 485 43 b 344 47 363 43 354 44 b 269 240 315 54 278 74 z m 88 -251 b 36 -272 81 -267 54 -271 l 36 -306 l 340 -306 l 340 -272 b 289 -251 322 -271 296 -267 b 268 -33 268 -207 268 -100 l 268 17 b 392 -10 304 -1 351 -10 b 679 461 579 -10 676 154 b 422 867 681 707 604 867 b 272 796 363 867 313 839 l 272 856 b 15 815 206 856 74 821 l 7 776 b 63 779 24 769 44 779 b 85 768 72 779 79 776 b 107 267 103 724 107 478 l 107 -32 b 88 -251 107 -99 108 -206 z "},"q":{"ha":688,"x_min":0,"x_max":0,"o":"m 208 449 b 326 811 208 521 213 811 b 421 622 385 811 415 764 b 421 525 421 582 421 546 l 419 449 b 324 69 411 240 426 78 b 208 449 240 63 206 168 z m 418 65 l 417 -296 b 671 -256 483 -296 613 -262 l 681 -217 b 625 -219 664 -210 642 -219 b 603 -208 615 -219 608 -218 b 581 526 576 -146 581 338 b 601 817 581 589 578 768 b 653 838 607 828 626 836 l 650 882 b 404 853 589 874 485 856 b 297 881 374 874 353 881 b 22 440 142 878 22 688 b 292 0 22 169 126 0 b 418 65 343 0 386 24 z "},"r":{"ha":585,"x_min":0,"x_max":0,"o":"m -17 771 b 39 774 0 764 21 774 b 61 763 49 774 56 771 b 83 349 88 699 83 536 b 63 53 83 285 86 101 b 17 32 56 39 35 33 l 17 0 l 318 0 l 318 32 b 267 53 300 33 274 39 b 246 349 243 101 246 285 l 246 357 b 371 757 254 582 315 760 b 469 617 414 754 376 653 b 563 763 533 606 589 679 b 442 858 544 822 499 858 b 249 633 326 858 274 725 l 250 850 b -7 810 183 850 51 815 z "},"s":{"ha":551,"x_min":0,"x_max":0,"o":"m 353 703 b 424 646 371 661 399 646 b 485 676 450 646 474 661 b 465 821 504 704 515 775 b 294 882 414 869 364 882 b 31 642 140 882 32 806 b 397 140 28 357 399 347 b 264 15 397 78 361 11 b 161 174 153 21 185 110 b 86 232 146 214 115 232 b 24 193 61 232 36 218 b 61 36 -7 129 25 69 b 253 -31 97 3 165 -31 b 539 221 403 -31 539 58 b 171 721 539 539 175 547 b 288 838 168 811 229 846 b 353 703 356 826 322 772 z "},"t":{"ha":442,"x_min":0,"x_max":0,"o":"m 411 790 l 413 840 l 282 842 l 282 844 l 285 1083 l 249 1082 b 13 840 231 943 79 838 l 13 790 b 106 769 57 788 93 793 b 124 154 125 733 125 293 b 275 -24 122 26 196 -24 b 438 49 335 -24 399 4 l 429 111 b 350 67 400 82 372 67 b 279 224 307 67 281 121 b 282 790 276 435 281 578 z "},"u":{"ha":693,"x_min":0,"x_max":0,"o":"m 442 -14 b 697 29 508 -14 639 22 l 706 68 b 651 65 689 75 668 65 b 631 76 643 65 636 67 b 611 850 596 158 611 764 b 350 810 544 850 408 817 l 340 771 b 396 774 357 764 379 774 b 418 763 406 774 413 772 b 442 281 454 676 444 368 b 314 93 431 221 394 93 b 243 257 275 93 246 119 b 239 518 242 300 239 449 b 240 850 240 629 240 739 b -17 810 174 850 42 817 l -26 771 b 29 774 -10 764 13 774 b 51 763 39 774 46 772 b 81 208 93 663 69 338 b 258 0 93 60 160 0 b 442 151 349 0 406 58 z "},"v":{"ha":733,"x_min":0,"x_max":0,"o":"m 346 0 l 346 -1 l 347 0 l 388 0 b 640 757 439 178 578 621 b 725 807 661 801 703 806 l 725 840 l 476 840 l 476 807 b 539 757 519 807 539 786 b 424 343 539 686 478 517 l 303 744 b 367 807 290 786 325 806 l 367 840 l 11 840 l 11 807 b 122 717 67 806 94 790 b 344 4 169 593 254 306 b 343 0 344 3 343 1 z "},"w":{"ha":1124,"x_min":0,"x_max":0,"o":"m 686 751 b 769 807 678 808 744 804 l 769 840 l 656 840 l 600 839 l 401 840 l 401 807 b 510 721 457 806 482 808 b 528 664 515 704 521 685 b 431 344 507 578 468 461 l 304 757 b 360 807 293 793 315 803 l 360 840 l 11 840 l 11 807 b 128 721 67 806 100 794 b 351 -1 175 594 261 303 l 393 0 b 565 546 428 119 501 358 b 733 -1 611 399 672 201 l 775 0 b 1028 761 826 178 965 625 b 1114 808 1044 799 1082 804 l 1114 840 l 860 840 l 860 808 b 924 763 901 811 924 792 b 810 343 925 692 868 517 z "},"x":{"ha":726,"x_min":0,"x_max":0,"o":"m 443 519 b 575 742 496 615 542 693 b 688 807 613 794 644 804 l 688 840 l 440 840 l 440 807 b 500 739 494 807 515 782 b 417 576 490 710 460 653 b 349 724 394 625 372 674 b 389 807 329 765 349 803 l 389 840 l 19 840 l 19 807 b 150 724 76 806 110 797 b 301 418 203 624 253 521 b 99 79 233 301 154 163 b -6 33 60 26 38 36 l -6 0 l 274 0 l 274 33 b 211 146 238 33 161 32 b 329 358 232 196 283 282 b 421 161 360 292 389 226 b 369 33 469 60 436 35 l 369 0 l 754 0 l 754 33 b 639 118 697 35 678 43 b 443 519 565 253 504 385 z "},"y":{"ha":765,"x_min":0,"x_max":0,"o":"m 354 -21 b 246 -115 333 -78 311 -115 b 189 -108 229 -115 211 -114 b 107 -168 161 -101 124 -119 b 126 -268 96 -203 100 -239 b 194 -299 149 -292 174 -299 b 449 106 339 -299 421 -4 b 669 763 511 315 618 649 b 754 807 690 806 732 806 l 756 840 l 492 840 l 492 807 b 564 747 528 806 569 797 b 442 310 554 671 499 488 l 311 736 b 369 807 301 771 318 801 l 369 840 l 10 840 l 10 807 b 124 724 65 806 96 797 b 354 -21 172 594 260 289 z "},"z":{"ha":633,"x_min":0,"x_max":0,"o":"m 569 -1 b 578 296 569 74 576 231 l 551 306 b 476 67 543 278 500 83 b 207 42 460 58 331 49 l 583 804 l 583 838 l 58 839 b 50 572 58 764 51 638 l 78 563 b 143 768 86 590 119 751 b 385 794 160 776 272 786 l 11 33 l 11 -1 z "},"{":{"ha":507,"x_min":0,"x_max":0,"o":"m 13 560 l 13 535 b 174 383 82 519 174 474 b 140 147 174 304 140 228 b 476 -133 140 -8 247 -115 l 476 -103 b 308 67 389 -94 308 -35 b 336 304 308 147 336 224 b 126 547 336 433 226 510 b 336 792 225 582 336 667 b 308 1029 336 872 308 949 b 476 1197 308 1131 389 1188 l 476 1228 b 140 947 247 1211 140 1103 b 174 713 140 868 174 792 b 13 560 174 622 82 575 z "},"|":{"ha":568,"x_min":0,"x_max":0,"o":"m 243 1371 l 243 -183 l 331 -183 l 331 1371 z "},"}":{"ha":507,"x_min":0,"x_max":0,"o":"m 494 560 b 333 713 425 575 333 622 b 367 947 333 792 367 868 b 31 1228 367 1103 260 1211 l 31 1197 b 199 1029 118 1188 199 1131 b 171 792 199 949 171 872 b 381 547 171 667 282 582 b 171 304 281 510 171 433 b 199 67 171 224 199 147 b 31 -103 199 -35 118 -94 l 31 -133 b 367 147 260 -115 367 -8 b 333 383 367 228 333 304 b 494 535 333 474 425 519 z "},"~":{"ha":813,"x_min":0,"x_max":0,"o":"m 628 585 b 533 514 603 508 542 513 b 322 601 451 518 399 601 b 147 414 233 601 156 489 l 171 404 b 267 467 188 449 232 467 b 490 381 343 467 403 381 b 656 574 569 381 647 496 z "},"°":{"ha":596,"x_min":0,"x_max":0,"o":"m 299 1021 b 368 942 339 1021 368 988 b 299 863 368 894 339 863 b 228 942 258 863 228 894 b 299 1021 228 988 258 1021 z m 299 1107 b 144 943 208 1107 144 1039 b 299 775 144 844 208 775 b 451 940 388 775 451 843 b 299 1107 451 1038 388 1107 z "},"•":{"ha":528,"x_min":0,"x_max":0,"o":"m 265 642 b 163 533 207 642 163 593 b 265 424 163 472 207 424 b 365 532 322 424 365 471 b 265 642 365 593 322 642 z "},"´":{"ha":317,"x_min":0,"x_max":0,"o":"m 15 933 l 43 906 l 215 1021 b 239 1139 250 1044 267 1106 b 189 1165 224 1157 206 1165 b 133 1126 168 1165 149 1151 z "},"¨":{"ha":569,"x_min":0,"x_max":0,"o":"m 335 1057 b 413 960 335 1007 365 960 b 492 1051 457 960 492 1001 b 413 1147 492 1103 460 1147 b 335 1057 365 1147 335 1111 z m 71 1057 b 149 960 71 1007 101 960 l 151 960 b 229 1051 193 960 229 1001 b 151 1147 229 1103 196 1147 b 71 1057 101 1147 71 1111 z "},"ˆ":{"ha":594,"x_min":0,"x_max":0,"o":"m 268 1160 b 235 1143 251 1160 244 1154 l 103 983 b 94 964 96 975 94 971 b 110 913 94 960 103 913 b 140 926 121 913 131 918 l 285 1051 l 428 926 b 458 913 438 918 447 913 b 472 964 464 913 472 913 b 464 983 472 971 472 975 l 333 1143 b 299 1160 324 1154 318 1160 z "},"¯":{"ha":542,"x_min":0,"x_max":0,"o":"m 125 910 b 103 885 106 910 108 907 b 93 851 94 860 93 857 b 104 846 93 846 99 846 l 410 846 b 439 868 429 846 431 846 b 447 901 443 879 447 892 b 429 910 447 910 444 910 z "},"˘":{"ha":569,"x_min":0,"x_max":0,"o":"m 285 811 b 457 1006 392 811 457 925 b 443 1032 457 1022 451 1032 b 414 1007 431 1032 417 1022 b 289 921 400 931 365 921 b 163 999 213 921 176 921 b 126 1032 160 1014 136 1032 b 113 1006 117 1032 113 1019 b 283 811 113 925 178 811 z "},"˙":{"ha":319,"x_min":0,"x_max":0,"o":"m 161 814 b 222 890 199 814 222 850 b 161 967 222 929 199 967 b 100 890 122 967 100 929 b 160 814 100 849 121 814 z "},"˚":{"ha":403,"x_min":0,"x_max":0,"o":"m 194 925 b 306 1049 257 925 306 979 b 194 1172 306 1117 257 1172 b 85 1049 133 1172 85 1117 b 193 925 85 979 133 925 z m 194 999 b 151 1049 171 999 151 1021 b 194 1097 151 1076 171 1097 b 239 1049 219 1097 239 1076 b 196 999 239 1021 219 999 z "},"˜":{"ha":635,"x_min":0,"x_max":0,"o":"m 411 935 b 544 1104 492 935 546 1035 l 532 1125 b 438 1044 506 1083 496 1047 b 225 1142 379 1040 300 1144 b 101 967 153 1138 125 1032 l 117 935 b 201 1032 129 935 142 1029 b 411 935 264 1032 331 935 z "},"¸":{"ha":458,"x_min":0,"x_max":0,"o":"m 204 15 l 140 -90 b 124 -121 138 -94 124 -114 b 135 -136 124 -135 129 -136 b 194 -132 153 -136 171 -132 b 278 -207 239 -132 278 -140 b 214 -318 278 -300 250 -318 b 115 -249 149 -318 151 -249 b 90 -281 100 -249 90 -265 b 211 -344 90 -332 179 -344 b 376 -200 249 -344 376 -326 b 233 -90 376 -101 292 -90 b 189 -93 215 -90 201 -92 l 254 15 z "},"ˇ":{"ha":597,"x_min":0,"x_max":0,"o":"m 314 811 b 349 828 332 811 339 815 l 481 1013 b 489 1035 488 1024 489 1028 b 474 1040 489 1040 481 1040 b 443 1025 463 1040 453 1035 l 299 881 l 154 1025 b 124 1040 144 1035 135 1040 b 108 1035 117 1040 108 1040 b 117 1013 108 1028 110 1024 l 249 828 b 283 811 258 815 265 811 z "},"“":{"ha":561,"x_min":0,"x_max":0,"o":"m 374 999 b 440 1114 363 1036 389 1081 l 424 1146 b 292 938 346 1114 288 1032 b 382 818 293 886 322 818 b 461 903 421 818 460 849 b 374 999 461 953 431 996 z m 165 999 b 232 1114 154 1036 181 1081 l 215 1146 b 83 938 138 1114 79 1032 b 174 818 85 886 114 818 b 253 903 213 818 251 849 b 165 999 253 953 222 996 z "},"”":{"ha":482,"x_min":0,"x_max":0,"o":"m 113 964 b 44 849 122 926 96 882 l 63 817 b 194 1025 139 850 199 931 b 104 1146 192 1075 164 1146 b 25 1058 67 1146 26 1114 b 113 964 25 1010 56 967 z m 321 964 b 253 849 331 926 304 882 l 271 817 b 403 1025 347 850 407 931 b 313 1146 400 1075 372 1146 b 233 1058 275 1146 235 1114 b 321 964 233 1010 264 967 z "},"‘":{"ha":285,"x_min":0,"x_max":0,"o":"m 143 1003 b 211 1118 133 1040 160 1085 l 193 1150 b 61 942 117 1118 57 1036 b 151 822 64 892 92 822 b 231 907 192 822 229 853 b 143 1003 231 957 200 1000 z "},"’":{"ha":251,"x_min":0,"x_max":0,"o":"m 121 969 b 53 854 132 931 104 886 l 71 822 b 203 1029 149 854 207 935 b 113 1150 200 1079 172 1150 b 33 1063 75 1150 35 1118 b 121 969 33 1014 64 971 z "},"‚":{"ha":285,"x_min":0,"x_max":0,"o":"m 149 -11 b 81 -126 160 -50 132 -94 l 99 -158 b 231 49 176 -126 235 -46 b 140 169 228 99 200 169 b 61 82 103 169 63 138 b 149 -11 61 33 92 -10 z "},"„":{"ha":482,"x_min":0,"x_max":0,"o":"m 113 -39 b 44 -154 122 -76 96 -122 l 63 -186 b 194 21 139 -154 199 -74 b 104 142 192 71 164 142 b 25 57 65 142 26 111 b 113 -39 25 7 56 -37 z m 321 -39 b 253 -154 331 -76 304 -122 l 271 -186 b 403 21 347 -154 407 -74 b 313 142 400 71 372 142 b 233 57 274 142 235 111 b 321 -39 233 7 264 -37 z "},"–":{"ha":569,"x_min":0,"x_max":0,"o":"m 563 392 l 563 472 l 7 468 l 7 388 z "},"—":{"ha":1043,"x_min":0,"x_max":0,"o":"m 1038 392 l 1038 472 l 7 468 l 7 388 z "},"ä":{"ha":626,"x_min":0,"x_max":0,"o":"m 379 225 b 261 88 354 135 307 88 b 193 175 213 88 190 114 b 381 450 197 290 301 358 b 379 225 381 376 385 299 z m 376 -17 b 638 29 440 -17 575 22 l 646 68 b 633 71 643 69 639 71 b 590 65 619 71 606 65 b 568 76 582 65 574 68 b 547 533 538 128 547 453 b 544 629 547 565 546 597 b 303 864 539 794 429 864 b 19 575 156 864 19 753 b 86 518 19 551 44 518 b 189 579 131 519 171 524 b 306 808 194 706 171 804 b 381 531 383 811 381 660 b 19 164 272 396 19 369 b 183 -18 19 46 81 -18 b 378 92 278 -18 319 21 z m 107 1057 b 185 960 107 1007 138 960 l 188 960 b 265 1051 229 960 265 1001 b 188 1147 265 1103 232 1147 b 107 1057 138 1147 107 1111 z m 371 1057 b 449 960 371 1007 401 960 b 528 1051 493 960 528 1001 b 449 1147 528 1103 496 1147 b 371 1057 401 1147 371 1111 z "},"ã":{"ha":626,"x_min":0,"x_max":0,"o":"m 379 225 b 261 88 354 135 307 88 b 193 175 213 88 190 114 b 381 450 197 290 301 358 b 379 225 381 376 385 299 z m 376 -17 b 638 29 440 -17 575 22 l 646 68 b 633 71 643 69 639 71 b 590 65 619 71 606 65 b 568 76 582 65 574 68 b 547 533 538 128 547 453 b 544 629 547 565 546 597 b 303 864 539 794 429 864 b 19 575 156 864 19 753 b 86 518 19 551 44 518 b 189 579 131 519 171 524 b 306 808 194 706 171 804 b 381 531 383 811 381 660 b 19 164 272 396 19 369 b 183 -18 19 46 81 -18 b 378 92 278 -18 319 21 z m 360 933 b 493 1103 440 933 494 1033 l 481 1124 b 386 1043 454 1082 444 1046 b 174 1140 328 1039 249 1143 b 50 965 101 1136 74 1031 l 65 933 b 150 1031 78 933 90 1028 b 360 933 213 1031 279 933 z "},"á":{"ha":626,"x_min":0,"x_max":0,"o":"m 379 225 b 261 88 354 135 307 88 b 193 175 213 88 190 114 b 381 450 197 290 301 358 b 379 225 381 376 385 299 z m 376 -17 b 638 29 440 -17 575 22 l 646 68 b 633 71 643 69 639 71 b 590 65 619 71 606 65 b 568 76 582 65 574 68 b 547 533 538 128 547 453 b 544 629 547 565 546 597 b 303 864 539 794 429 864 b 19 575 156 864 19 753 b 86 518 19 551 44 518 b 189 579 131 519 171 524 b 306 808 194 706 171 804 b 381 531 383 811 381 660 b 19 164 272 396 19 369 b 183 -18 19 46 81 -18 b 378 92 278 -18 319 21 z m 228 906 l 400 1021 b 424 1139 435 1044 451 1106 b 374 1165 408 1157 390 1165 b 318 1126 353 1165 333 1151 l 200 933 z "},"à":{"ha":626,"x_min":0,"x_max":0,"o":"m 379 225 b 261 88 354 135 307 88 b 193 175 213 88 190 114 b 381 450 197 290 301 358 b 379 225 381 376 385 299 z m 376 -17 b 638 29 440 -17 575 22 l 646 68 b 633 71 643 69 639 71 b 590 65 619 71 606 65 b 568 76 582 65 574 68 b 547 533 538 128 547 453 b 544 629 547 565 546 597 b 303 864 539 794 429 864 b 19 575 156 864 19 753 b 86 518 19 551 44 518 b 189 579 131 519 171 524 b 306 808 194 706 171 804 b 381 531 383 811 381 660 b 19 164 272 396 19 369 b 183 -18 19 46 81 -18 b 378 92 278 -18 319 21 z m 321 1129 b 264 1168 306 1154 285 1168 b 215 1142 247 1168 231 1160 b 239 1024 186 1107 203 1047 l 410 908 l 439 936 z "},"â":{"ha":626,"x_min":0,"x_max":0,"o":"m 379 225 b 261 88 354 135 307 88 b 193 175 213 88 190 114 b 381 450 197 290 301 358 b 379 225 381 376 385 299 z m 376 -17 b 638 29 440 -17 575 22 l 646 68 b 633 71 643 69 639 71 b 590 65 619 71 606 65 b 568 76 582 65 574 68 b 547 533 538 128 547 453 b 544 629 547 565 546 597 b 303 864 539 794 429 864 b 19 575 156 864 19 753 b 86 518 19 551 44 518 b 189 579 131 519 171 524 b 306 808 194 706 171 804 b 381 531 383 811 381 660 b 19 164 272 396 19 369 b 183 -18 19 46 81 -18 b 378 92 278 -18 319 21 z m 299 1160 b 265 1143 282 1160 275 1154 l 133 983 b 125 964 126 975 125 971 b 140 913 125 960 133 913 b 171 926 151 913 161 918 l 315 1051 l 458 926 b 489 913 468 918 478 913 b 503 964 494 913 503 913 b 494 983 503 971 503 975 l 364 1143 b 329 1160 354 1154 349 1160 z "},"å":{"ha":626,"x_min":0,"x_max":0,"o":"m 379 225 b 261 88 354 135 307 88 b 193 175 213 88 190 114 b 381 450 197 290 301 358 b 379 225 381 376 385 299 z m 308 999 b 265 1049 285 999 265 1021 b 308 1097 265 1076 285 1097 b 353 1049 333 1097 353 1076 b 310 999 353 1021 333 999 z m 376 -17 b 638 29 440 -17 575 22 l 646 68 b 633 71 643 69 639 71 b 590 65 619 71 606 65 b 568 76 582 65 574 68 b 547 533 538 128 547 453 b 544 629 547 565 546 597 b 303 864 539 794 429 864 b 19 575 156 864 19 753 b 86 518 19 551 44 518 b 189 579 131 519 171 524 b 306 808 194 706 171 804 b 381 531 383 811 381 660 b 19 164 272 396 19 369 b 183 -18 19 46 81 -18 b 378 92 278 -18 319 21 z m 308 925 b 419 1049 371 925 419 979 b 308 1172 419 1117 371 1172 b 199 1049 247 1172 199 1117 b 307 925 199 979 247 925 z "},"é":{"ha":594,"x_min":0,"x_max":0,"o":"m 410 635 b 364 582 410 604 393 582 l 201 582 b 313 825 204 650 215 825 b 410 635 407 825 408 721 z m 550 525 b 576 575 567 525 578 557 b 306 875 558 789 449 875 b 22 442 133 875 22 699 b 304 -29 22 174 126 -29 b 574 260 458 -29 558 121 l 535 268 b 358 86 522 179 456 86 b 199 442 249 86 199 231 l 199 525 z m 207 906 l 379 1021 b 403 1139 414 1044 431 1106 b 353 1165 388 1157 369 1165 b 297 1126 332 1165 313 1151 l 179 933 z "},"è":{"ha":594,"x_min":0,"x_max":0,"o":"m 410 635 b 364 582 410 604 393 582 l 201 582 b 313 825 204 650 215 825 b 410 635 407 825 408 721 z m 550 525 b 576 575 567 525 578 557 b 306 875 558 789 449 875 b 22 442 133 875 22 699 b 304 -29 22 174 126 -29 b 574 260 458 -29 558 121 l 535 268 b 358 86 522 179 456 86 b 199 442 249 86 199 231 l 199 525 z m 299 1129 b 242 1168 283 1154 263 1168 b 193 1142 225 1168 208 1160 b 217 1024 164 1107 181 1047 l 388 908 l 417 936 z "},"ê":{"ha":594,"x_min":0,"x_max":0,"o":"m 410 635 b 364 582 410 604 393 582 l 201 582 b 313 825 204 650 215 825 b 410 635 407 825 408 721 z m 550 525 b 576 575 567 525 578 557 b 306 875 558 789 449 875 b 22 442 133 875 22 699 b 304 -29 22 174 126 -29 b 574 260 458 -29 558 121 l 535 268 b 358 86 522 179 456 86 b 199 442 249 86 199 231 l 199 525 z m 282 1160 b 249 1143 265 1160 258 1154 l 117 983 b 108 964 110 975 108 971 b 124 913 108 960 117 913 b 154 926 135 913 144 918 l 299 1051 l 442 926 b 472 913 451 918 461 913 b 486 964 478 913 486 913 b 478 983 486 971 486 975 l 347 1143 b 313 1160 338 1154 332 1160 z "},"ë":{"ha":594,"x_min":0,"x_max":0,"o":"m 410 635 b 364 582 410 604 393 582 l 201 582 b 313 825 204 650 215 825 b 410 635 407 825 408 721 z m 550 525 b 576 575 567 525 578 557 b 306 875 558 789 449 875 b 22 442 133 875 22 699 b 304 -29 22 174 126 -29 b 574 260 458 -29 558 121 l 535 268 b 358 86 522 179 456 86 b 199 442 249 86 199 231 l 199 525 z m 86 1057 b 164 960 86 1007 117 960 l 167 960 b 244 1051 208 960 244 1001 b 167 1147 244 1103 211 1147 b 86 1057 117 1147 86 1111 z m 350 1057 b 428 960 350 1007 381 960 b 507 1051 472 960 507 1001 b 428 1147 507 1103 475 1147 b 350 1057 381 1147 350 1111 z "},"ı":{"ha":331,"x_min":0,"x_max":0,"o":"m -17 771 b 39 774 0 764 22 774 b 61 763 49 774 56 772 b 85 349 88 700 85 536 b 64 53 85 285 88 101 b 13 32 57 39 31 33 l 13 0 l 319 0 l 319 32 b 268 53 301 33 275 39 b 247 349 244 101 247 285 l 250 850 b -7 810 183 850 51 817 z "},"í":{"ha":331,"x_min":0,"x_max":0,"o":"m -17 771 b 39 774 0 764 22 774 b 61 763 49 774 56 772 b 85 349 88 700 85 536 b 64 53 85 285 88 101 b 13 32 57 39 31 33 l 13 0 l 319 0 l 319 32 b 268 53 301 33 275 39 b 247 349 244 101 247 285 l 250 850 b -7 810 183 850 51 817 z m 47 933 l 75 906 l 247 1021 b 271 1139 282 1044 299 1106 b 221 1165 256 1157 238 1165 b 165 1126 200 1165 181 1151 z "},"ì":{"ha":331,"x_min":0,"x_max":0,"o":"m -17 771 b 39 774 0 764 22 774 b 61 763 49 774 56 772 b 85 349 88 700 85 536 b 64 53 85 285 88 101 b 13 32 57 39 31 33 l 13 0 l 319 0 l 319 32 b 268 53 301 33 275 39 b 247 349 244 101 247 285 l 250 850 b -7 810 183 850 51 817 z m 285 936 l 167 1129 b 110 1168 151 1154 131 1168 b 61 1142 93 1168 76 1160 b 85 1024 32 1107 49 1047 l 256 908 z "},"î":{"ha":331,"x_min":0,"x_max":0,"o":"m -17 771 b 39 774 0 764 22 774 b 61 763 49 774 56 772 b 85 349 88 700 85 536 b 64 53 85 285 88 101 b 13 32 57 39 31 33 l 13 0 l 319 0 l 319 32 b 268 53 301 33 275 39 b 247 349 244 101 247 285 l 250 850 b -7 810 183 850 51 817 z m 150 1160 b 117 1143 133 1160 126 1154 l -15 983 b -24 964 -22 975 -24 971 b -8 913 -24 960 -15 913 b 22 926 3 913 13 918 l 167 1051 l 310 926 b 340 913 319 918 329 913 b 354 964 346 913 354 913 b 346 983 354 971 354 975 l 215 1143 b 181 1160 206 1154 200 1160 z "},"ï":{"ha":331,"x_min":0,"x_max":0,"o":"m -17 771 b 39 774 0 764 22 774 b 61 763 49 774 56 772 b 85 349 88 700 85 536 b 64 53 85 285 88 101 b 13 32 57 39 31 33 l 13 0 l 319 0 l 319 32 b 268 53 301 33 275 39 b 247 349 244 101 247 285 l 250 850 b -7 810 183 850 51 817 z m 218 1057 b 296 960 218 1007 249 960 b 375 1051 340 960 375 1001 b 296 1147 375 1103 343 1147 b 218 1057 249 1147 218 1111 z m -46 1057 b 32 960 -46 1007 -15 960 l 35 960 b 113 1051 76 960 113 1001 b 35 1147 113 1103 79 1147 b -46 1057 -15 1147 -46 1111 z "},"ñ":{"ha":696,"x_min":0,"x_max":0,"o":"m -17 771 b 39 774 0 764 21 774 b 61 763 49 774 56 771 b 83 349 88 699 83 536 b 63 53 83 285 86 101 b 11 32 56 39 29 33 l 11 0 l 318 0 l 318 32 b 267 53 300 33 274 39 b 246 349 243 101 246 285 l 246 388 l 247 529 b 365 735 254 588 285 735 b 451 576 397 735 444 706 b 454 349 454 522 454 417 b 433 53 454 285 457 101 b 382 32 426 39 400 33 l 382 0 l 689 0 l 689 32 b 638 53 671 33 644 39 b 614 614 608 115 614 456 b 443 863 614 806 522 863 b 249 688 349 861 289 781 l 250 850 b -7 810 183 850 51 815 z m 436 935 b 569 1104 517 935 571 1035 l 557 1125 b 463 1044 531 1083 521 1047 b 250 1142 404 1040 325 1144 b 126 967 178 1138 150 1032 l 142 935 b 226 1032 154 935 167 1029 b 436 935 289 1032 356 935 z "},"ó":{"ha":656,"x_min":0,"x_max":0,"o":"m 451 433 b 328 17 451 208 435 17 b 204 433 219 17 204 206 b 328 833 204 658 219 833 b 451 433 435 833 451 661 z m 328 876 b 21 433 150 876 21 731 b 328 -26 21 136 151 -26 b 635 433 503 -26 635 136 b 328 876 635 735 503 876 z m 238 906 l 410 1021 b 433 1139 444 1044 461 1106 b 383 1165 418 1157 400 1165 b 328 1126 363 1165 343 1151 l 210 933 z "},"ò":{"ha":656,"x_min":0,"x_max":0,"o":"m 451 433 b 328 17 451 208 435 17 b 204 433 219 17 204 206 b 328 833 204 658 219 833 b 451 433 435 833 451 661 z m 328 876 b 21 433 150 876 21 731 b 328 -26 21 136 151 -26 b 635 433 503 -26 635 136 b 328 876 635 735 503 876 z m 329 1129 b 272 1168 314 1154 293 1168 b 224 1142 256 1168 239 1160 b 247 1024 194 1107 211 1047 l 418 908 l 447 936 z "},"ô":{"ha":656,"x_min":0,"x_max":0,"o":"m 451 433 b 328 17 451 208 435 17 b 204 433 219 17 204 206 b 328 833 204 658 219 833 b 451 433 435 833 451 661 z m 328 876 b 21 433 150 876 21 731 b 328 -26 21 136 151 -26 b 635 433 503 -26 635 136 b 328 876 635 735 503 876 z m 313 1160 b 279 1143 296 1160 289 1154 l 147 983 b 139 964 140 975 139 971 b 154 913 139 960 147 913 b 185 926 165 913 175 918 l 329 1051 l 472 926 b 503 913 482 918 492 913 b 517 964 508 913 517 913 b 508 983 517 971 517 975 l 378 1143 b 343 1160 368 1154 363 1160 z "},"ö":{"ha":656,"x_min":0,"x_max":0,"o":"m 451 433 b 328 17 451 208 435 17 b 204 433 219 17 204 206 b 328 833 204 658 219 833 b 451 433 435 833 451 661 z m 328 876 b 21 433 150 876 21 731 b 328 -26 21 136 151 -26 b 635 433 503 -26 635 136 b 328 876 635 735 503 876 z m 117 1057 b 194 960 117 1007 147 960 l 197 960 b 275 1051 239 960 275 1001 b 197 1147 275 1103 242 1147 b 117 1057 147 1147 117 1111 z m 381 1057 b 458 960 381 1007 411 960 b 538 1051 503 960 538 1001 b 458 1147 538 1103 506 1147 b 381 1057 411 1147 381 1111 z "},"õ":{"ha":656,"x_min":0,"x_max":0,"o":"m 451 433 b 328 17 451 208 435 17 b 204 433 219 17 204 206 b 328 833 204 658 219 833 b 451 433 435 833 451 661 z m 328 876 b 21 433 150 876 21 731 b 328 -26 21 136 151 -26 b 635 433 503 -26 635 136 b 328 876 635 735 503 876 z m 415 935 b 549 1104 496 935 550 1035 l 536 1125 b 442 1044 510 1083 500 1047 b 229 1142 383 1040 304 1144 b 106 967 157 1138 129 1032 l 121 935 b 206 1032 133 935 146 1029 b 415 935 268 1032 335 935 z "},"ú":{"ha":693,"x_min":0,"x_max":0,"o":"m 442 -14 b 697 29 508 -14 639 22 l 706 68 b 651 65 689 75 668 65 b 631 76 643 65 636 67 b 611 850 596 158 611 764 b 350 810 544 850 408 817 l 340 771 b 396 774 357 764 379 774 b 418 763 406 774 413 772 b 442 281 454 676 444 368 b 314 93 431 221 394 93 b 243 257 275 93 246 119 b 239 518 242 300 239 449 b 240 850 240 629 240 739 b -17 810 174 850 42 817 l -26 771 b 29 774 -10 764 13 774 b 51 763 39 774 46 772 b 81 208 93 663 69 338 b 258 0 93 60 160 0 b 442 151 349 0 406 58 z m 228 933 l 256 906 l 428 1021 b 451 1139 463 1044 479 1106 b 401 1165 436 1157 418 1165 b 346 1126 381 1165 361 1151 z "},"ù":{"ha":693,"x_min":0,"x_max":0,"o":"m 442 -14 b 697 29 508 -14 639 22 l 706 68 b 651 65 689 75 668 65 b 631 76 643 65 636 67 b 611 850 596 158 611 764 b 350 810 544 850 408 817 l 340 771 b 396 774 357 764 379 774 b 418 763 406 774 413 772 b 442 281 454 676 444 368 b 314 93 431 221 394 93 b 243 257 275 93 246 119 b 239 518 242 300 239 449 b 240 850 240 629 240 739 b -17 810 174 850 42 817 l -26 771 b 29 774 -10 764 13 774 b 51 763 39 774 46 772 b 81 208 93 663 69 338 b 258 0 93 60 160 0 b 442 151 349 0 406 58 z m 467 936 l 349 1129 b 292 1168 333 1154 313 1168 b 243 1142 275 1168 258 1160 b 267 1024 214 1107 231 1047 l 438 908 z "},"û":{"ha":693,"x_min":0,"x_max":0,"o":"m 442 -14 b 697 29 508 -14 639 22 l 706 68 b 651 65 689 75 668 65 b 631 76 643 65 636 67 b 611 850 596 158 611 764 b 350 810 544 850 408 817 l 340 771 b 396 774 357 764 379 774 b 418 763 406 774 413 772 b 442 281 454 676 444 368 b 314 93 431 221 394 93 b 243 257 275 93 246 119 b 239 518 242 300 239 449 b 240 850 240 629 240 739 b -17 810 174 850 42 817 l -26 771 b 29 774 -10 764 13 774 b 51 763 39 774 46 772 b 81 208 93 663 69 338 b 258 0 93 60 160 0 b 442 151 349 0 406 58 z m 332 1160 b 299 1143 315 1160 308 1154 l 167 983 b 158 964 160 975 158 971 b 174 913 158 960 167 913 b 204 926 185 913 194 918 l 349 1051 l 492 926 b 522 913 501 918 511 913 b 536 964 528 913 536 913 b 528 983 536 971 536 975 l 397 1143 b 363 1160 388 1154 382 1160 z "},"ü":{"ha":693,"x_min":0,"x_max":0,"o":"m 442 -14 b 697 29 508 -14 639 22 l 706 68 b 651 65 689 75 668 65 b 631 76 643 65 636 67 b 611 850 596 158 611 764 b 350 810 544 850 408 817 l 340 771 b 396 774 357 764 379 774 b 418 763 406 774 413 772 b 442 281 454 676 444 368 b 314 93 431 221 394 93 b 243 257 275 93 246 119 b 239 518 242 300 239 449 b 240 850 240 629 240 739 b -17 810 174 850 42 817 l -26 771 b 29 774 -10 764 13 774 b 51 763 39 774 46 772 b 81 208 93 663 69 338 b 258 0 93 60 160 0 b 442 151 349 0 406 58 z m 400 1057 b 478 960 400 1007 431 960 b 557 1051 522 960 557 1001 b 478 1147 557 1103 525 1147 b 400 1057 431 1147 400 1111 z m 136 1057 b 214 960 136 1007 167 960 l 217 960 b 294 1051 258 960 294 1001 b 217 1147 294 1103 261 1147 b 136 1057 167 1147 136 1111 z "},"Ä":{"ha":804,"x_min":0,"x_max":0,"o":"m 274 501 b 351 835 296 599 324 721 b 428 501 379 721 406 601 z m 440 444 b 461 349 447 408 454 375 b 510 53 475 285 522 101 b 433 32 506 39 453 33 l 433 0 l 785 0 l 785 32 b 728 53 765 33 738 39 b 636 349 693 101 650 285 l 451 1169 l 361 1169 l 176 349 b 85 53 163 285 119 101 b 22 32 74 39 42 33 l 24 0 l 251 0 l 251 32 b 190 53 233 33 193 39 b 239 349 176 101 225 285 b 261 444 244 374 251 406 z m 192 1417 b 269 1319 192 1367 222 1319 l 272 1319 b 350 1411 314 1319 350 1361 b 272 1507 350 1463 317 1507 b 192 1417 222 1507 192 1471 z m 456 1417 b 533 1319 456 1367 486 1319 b 613 1411 578 1319 613 1361 b 533 1507 613 1463 581 1507 b 456 1417 486 1507 456 1471 z "},"Å":{"ha":804,"x_min":0,"x_max":0,"o":"m 274 501 b 351 835 296 599 324 721 b 428 501 379 721 406 601 z m 401 1358 b 358 1408 378 1358 358 1381 b 401 1457 358 1436 378 1457 b 446 1408 426 1457 446 1436 b 403 1358 446 1381 426 1358 z m 440 444 b 461 349 447 408 454 375 b 510 53 475 285 522 101 b 433 32 506 39 453 33 l 433 0 l 785 0 l 785 32 b 728 53 765 33 738 39 b 636 349 693 101 650 285 l 451 1169 l 361 1169 l 176 349 b 85 53 163 285 119 101 b 22 32 74 39 42 33 l 24 0 l 251 0 l 251 32 b 190 53 233 33 193 39 b 239 349 176 101 225 285 b 261 444 244 374 251 406 z m 401 1285 b 513 1408 464 1285 513 1339 b 401 1532 513 1476 464 1532 b 292 1408 340 1532 292 1476 b 400 1285 292 1339 340 1285 z "},"Ç":{"ha":696,"x_min":0,"x_max":0,"o":"m 349 -21 b 371 -21 356 -21 363 -21 b 672 363 568 -17 640 168 l 626 363 b 371 44 572 107 482 36 b 204 593 257 53 204 278 b 371 1135 204 904 243 1125 b 579 813 460 1142 578 992 l 617 813 l 622 1181 l 589 1181 l 568 1110 b 371 1181 513 1164 446 1181 b 22 592 175 1181 22 999 b 303 -12 22 233 142 29 l 256 -90 b 239 -121 253 -94 239 -114 b 250 -136 239 -135 244 -136 b 310 -132 268 -136 286 -132 b 393 -207 354 -132 393 -140 b 329 -318 393 -300 365 -318 b 231 -249 264 -318 267 -249 b 206 -281 215 -249 206 -265 b 326 -344 206 -332 294 -344 b 492 -200 364 -344 492 -326 b 349 -90 492 -101 407 -90 b 304 -93 331 -90 317 -92 z "},"É":{"ha":714,"x_min":0,"x_max":0,"o":"m 256 585 b 438 572 354 583 407 582 b 501 367 486 554 493 394 l 535 369 b 535 851 532 500 532 721 l 501 854 b 438 649 493 826 486 665 b 257 635 407 638 354 638 b 278 1088 257 828 265 1010 b 319 1122 281 1110 296 1122 b 528 1101 419 1119 501 1115 b 607 879 553 1085 597 907 l 639 889 b 633 1169 638 954 633 1096 l 11 1169 l 11 1138 b 64 1117 28 1136 54 1133 b 88 586 93 1067 88 800 b 64 53 88 372 93 103 b 11 32 54 36 28 33 l 11 0 l 263 0 l 649 -1 b 669 296 649 74 668 231 l 636 306 b 544 72 628 278 568 89 b 321 50 518 58 424 53 b 278 85 296 50 281 63 b 256 585 265 168 256 374 z m 239 1293 l 267 1265 l 439 1381 b 463 1499 474 1404 490 1465 b 413 1525 447 1517 429 1525 b 357 1486 392 1525 372 1511 z "},"Ñ":{"ha":775,"x_min":0,"x_max":0,"o":"m 526 1138 b 593 1115 543 1136 583 1132 b 617 585 622 1065 617 776 l 617 351 l 240 1169 l 10 1169 l 10 1138 b 76 1115 26 1136 68 1132 b 100 585 104 1065 100 776 b 76 54 100 369 107 106 b 10 33 67 38 26 33 l 10 0 l 263 0 l 263 33 b 182 54 246 33 192 38 b 160 582 150 107 160 367 l 160 921 l 592 0 l 675 0 l 675 582 b 699 1115 675 781 667 1063 b 765 1138 708 1132 749 1136 l 765 1169 l 526 1169 z m 475 1294 b 608 1464 556 1294 610 1394 l 596 1485 b 501 1404 569 1443 560 1407 b 289 1501 443 1400 364 1504 b 165 1326 217 1497 189 1392 l 181 1294 b 265 1392 193 1294 206 1389 b 475 1294 328 1392 394 1294 z "},"Ö":{"ha":735,"x_min":0,"x_max":0,"o":"m 531 589 b 367 26 531 275 488 25 b 204 593 246 28 204 278 b 367 1133 204 904 246 1136 b 531 589 488 1132 531 906 z m 367 1181 b 22 592 171 1181 22 999 b 367 -21 22 185 172 -21 b 713 592 561 -21 713 185 b 367 1181 713 1003 561 1181 z m 157 1417 b 235 1319 157 1367 188 1319 l 238 1319 b 315 1411 279 1319 315 1361 b 238 1507 315 1463 282 1507 b 157 1417 188 1507 157 1471 z m 421 1417 b 499 1319 421 1367 451 1319 b 578 1411 543 1319 578 1361 b 499 1507 578 1463 546 1507 b 421 1417 451 1507 421 1471 z "},"Ü":{"ha":767,"x_min":0,"x_max":0,"o":"m 93 585 b 388 -19 93 311 75 -19 b 675 582 694 -19 675 313 b 674 747 675 633 674 690 b 697 1117 672 917 674 1076 b 750 1138 707 1133 733 1136 l 750 1169 l 542 1169 l 542 1138 b 594 1117 558 1136 585 1133 b 619 715 618 1076 621 892 b 619 585 619 669 619 624 b 590 197 619 433 618 300 b 428 50 569 114 522 50 b 260 582 242 50 260 374 b 282 1117 260 781 250 1064 b 333 1138 292 1133 317 1136 l 333 1169 l 17 1169 l 17 1138 b 71 1117 33 1136 60 1133 b 93 585 100 1067 93 776 z m 436 1417 b 514 1319 436 1367 467 1319 b 593 1411 558 1319 593 1361 b 514 1507 593 1463 561 1507 b 436 1417 467 1507 436 1471 z m 172 1417 b 250 1319 172 1367 203 1319 l 253 1319 b 331 1411 294 1319 331 1361 b 253 1507 331 1463 297 1507 b 172 1417 203 1507 172 1471 z "},"ç":{"ha":594,"x_min":0,"x_max":0,"o":"m 204 -90 b 188 -121 201 -94 188 -114 b 199 -136 188 -135 193 -136 b 258 -132 217 -136 235 -132 b 342 -207 303 -132 342 -140 b 278 -318 342 -300 314 -318 b 179 -249 213 -318 215 -249 b 154 -281 164 -249 154 -265 b 275 -344 154 -332 243 -344 b 440 -200 313 -344 440 -326 b 297 -90 440 -101 356 -90 b 253 -93 279 -90 265 -92 l 293 -26 b 321 -28 303 -28 311 -28 b 592 260 474 -28 578 118 l 550 265 b 375 67 540 183 468 67 b 208 435 264 67 208 267 b 307 829 208 575 218 821 b 410 590 407 839 351 665 b 460 568 422 575 440 568 b 558 711 517 568 583 625 b 325 874 514 835 438 874 b 21 436 92 874 21 629 b 249 -17 21 232 101 33 z "},"£":{"ha":693,"x_min":0,"x_max":0,"o":"m 13 451 l 138 451 b 8 149 143 317 124 196 l 10 0 l 718 0 l 731 319 l 704 319 b 378 144 696 167 543 144 b 114 147 286 144 190 151 b 307 451 242 219 292 329 l 618 451 l 618 499 l 313 499 b 301 874 321 624 301 758 b 451 1126 301 964 336 1126 b 549 1103 465 1126 500 1125 b 506 990 519 1072 506 1024 b 586 903 506 940 535 903 b 682 975 631 903 672 926 b 431 1178 710 1128 535 1178 b 108 792 249 1178 108 1038 b 135 499 108 706 126 600 l 13 499 z "},"¢":{"ha":697,"x_min":0,"x_max":0,"o":"m 365 96 b 235 481 250 111 233 350 b 365 858 235 610 251 850 z m 413 -42 l 413 53 b 639 228 506 67 594 128 b 576 357 668 294 622 357 b 524 318 557 357 538 346 b 413 100 499 268 497 129 l 413 851 b 503 638 492 818 481 689 b 546 607 511 617 528 607 b 622 732 593 607 653 672 b 413 890 574 831 524 882 l 413 994 l 365 994 l 365 892 b 69 483 244 888 69 776 b 365 50 69 188 210 56 l 365 -42 z "},"©":{"ha":1133,"x_min":0,"x_max":0,"o":"m 129 453 b 568 974 129 756 296 974 b 1007 453 839 974 1007 756 b 568 -68 1007 149 839 -68 b 129 453 296 -68 129 149 z m 68 453 b 568 -137 68 107 260 -137 b 1068 453 875 -137 1068 107 b 568 1043 1068 797 875 1043 b 68 453 260 1043 68 797 z m 447 451 b 581 774 447 576 465 778 b 701 567 694 769 678 622 b 743 539 708 550 724 539 b 815 656 788 539 843 600 b 581 806 764 757 710 806 b 292 454 465 806 292 735 b 581 82 292 174 429 82 b 831 247 681 82 782 140 b 772 367 858 310 815 367 b 721 331 753 367 735 356 b 581 122 694 278 697 119 b 447 451 464 126 447 328 z "},"®":{"ha":879,"x_min":0,"x_max":0,"o":"m 136 735 b 439 1099 136 943 253 1099 b 742 735 625 1099 742 943 b 439 372 742 526 625 372 b 136 735 253 372 136 526 z m 383 963 l 385 964 b 508 878 447 964 508 958 b 383 768 508 776 463 769 z m 68 735 b 439 301 68 482 213 301 b 810 735 665 301 810 482 b 439 1169 810 988 665 1169 b 68 735 213 1169 68 988 z m 419 485 l 421 515 b 390 521 411 515 399 514 b 382 682 382 536 382 657 l 382 736 l 404 736 b 436 725 411 736 429 729 b 568 485 538 674 468 485 b 638 531 599 485 621 504 l 615 553 b 594 531 611 546 603 531 b 588 536 592 531 589 535 b 501 751 564 565 579 711 b 583 874 550 772 583 813 b 271 997 583 1026 349 997 l 272 964 b 292 965 278 964 285 965 b 307 957 299 965 303 963 b 319 675 321 885 319 750 b 310 521 319 639 319 553 b 281 515 303 514 289 515 l 281 485 z "},"ß":{"ha":685,"x_min":0,"x_max":0,"o":"m 408 949 b 332 729 417 867 383 785 b 272 603 294 689 268 667 b 510 210 286 408 461 379 b 444 40 529 142 514 40 b 290 303 343 39 315 125 b 278 301 285 304 282 304 b 267 171 269 269 267 218 b 278 63 267 122 269 79 b 458 -3 324 43 376 1 b 672 249 576 -3 675 103 b 319 607 669 532 319 463 b 449 743 319 700 403 713 b 564 957 517 788 572 840 b 326 1167 554 1076 449 1167 b 308 1165 321 1167 314 1165 b 25 764 117 1151 25 1038 b 26 531 25 704 26 618 l 26 349 b 8 44 26 285 29 88 b -46 18 1 29 -18 19 l -46 0 l 261 0 l 261 18 b 207 44 233 19 214 29 b 189 349 186 88 189 285 l 190 843 b 308 1115 190 1038 219 1110 b 408 949 360 1118 399 1053 z "},"§":{"ha":651,"x_min":0,"x_max":0,"o":"m 213 753 b 458 497 319 668 460 618 b 451 453 458 483 456 468 b 199 688 344 543 201 585 b 213 753 197 714 203 735 z m 510 390 b 600 574 563 429 600 492 b 233 1047 600 875 239 883 b 349 1157 231 1133 290 1165 b 414 1031 417 1147 385 1096 b 486 976 433 990 460 976 b 546 1006 511 976 535 990 b 526 1142 565 1031 576 1099 b 351 1199 471 1190 422 1199 b 93 972 200 1199 94 1126 b 158 803 93 900 119 846 b 58 613 96 767 60 704 b 424 139 56 344 425 333 b 292 21 424 79 388 15 b 189 171 181 26 213 110 b 114 225 174 208 143 225 b 51 189 89 225 64 213 b 89 40 21 129 53 72 b 281 -24 125 8 192 -24 b 565 215 424 -24 565 56 b 510 390 565 289 543 346 z "},"Æ":{"ha":1125,"x_min":0,"x_max":0,"o":"m 336 501 b 488 847 381 603 436 729 b 497 501 493 731 496 606 z m 671 585 b 867 572 771 583 836 583 b 931 367 914 554 922 394 l 964 369 b 964 851 960 500 960 721 l 931 854 b 867 649 922 826 914 665 b 671 635 836 638 771 638 b 692 1088 672 828 681 1010 b 735 1122 696 1110 711 1122 b 957 1101 838 1119 931 1115 b 1035 879 981 1085 1026 907 l 1068 889 b 1061 1169 1067 954 1061 1096 l 425 1169 l 425 1138 b 478 1117 442 1136 468 1133 b 496 1021 488 1101 493 1067 l 208 349 b 57 53 181 285 101 101 b -10 32 43 39 10 33 l -8 0 l 219 0 l 219 32 b 161 53 201 33 163 39 b 271 349 158 101 243 285 b 308 433 281 371 293 400 l 499 433 b 500 349 499 401 500 372 b 501 297 500 335 501 318 b 478 53 500 179 494 81 b 463 39 475 47 469 43 b 408 32 443 35 419 33 l 408 0 l 678 0 l 1090 -1 b 1111 296 1090 74 1110 231 l 1078 306 b 986 72 1069 278 1010 89 b 735 50 958 58 842 53 b 692 85 711 50 696 63 b 671 585 679 168 671 374 z "},"Œ":{"ha":1140,"x_min":0,"x_max":0,"o":"m 531 593 b 367 31 531 279 488 29 b 204 597 246 32 204 282 b 367 1138 204 908 246 1140 b 531 593 488 1136 531 910 z m 713 585 b 894 572 811 583 864 582 b 958 367 943 554 950 394 l 992 369 b 992 851 989 500 989 721 l 958 854 b 894 649 950 826 943 665 b 714 635 864 638 811 638 b 735 1088 714 828 722 1010 b 776 1122 738 1110 753 1122 b 985 1101 876 1119 958 1115 b 1064 879 1010 1085 1054 907 l 1096 889 b 1090 1169 1094 954 1090 1096 l 468 1169 l 468 1167 b 367 1185 436 1179 403 1185 b 22 596 171 1185 22 1003 b 367 -17 22 189 172 -17 b 468 4 403 -17 436 -10 l 468 0 l 719 0 l 1106 -1 b 1126 296 1106 74 1125 231 l 1093 306 b 1001 72 1085 278 1025 89 b 778 50 975 58 881 53 b 735 85 753 50 738 63 b 713 585 722 168 713 374 z "},"œ":{"ha":1031,"x_min":0,"x_max":0,"o":"m 451 435 b 328 18 451 210 435 18 b 204 435 219 18 204 207 b 328 835 204 660 219 835 b 451 435 435 835 451 663 z m 846 635 b 800 582 846 604 829 582 l 638 582 b 749 825 640 650 651 825 b 846 635 843 825 844 721 z m 986 525 b 1013 575 1003 525 1014 557 b 742 875 994 789 885 875 b 546 771 661 875 594 838 b 328 878 492 843 415 878 b 21 435 150 878 21 732 b 328 -25 21 138 151 -25 b 543 89 414 -25 489 14 b 740 -29 592 15 658 -29 b 1010 260 894 -29 994 121 l 971 268 b 794 86 958 179 892 86 b 635 442 685 86 635 231 l 635 525 z "},"æ":{"ha":957,"x_min":0,"x_max":0,"o":"m 379 225 b 261 88 354 135 307 88 b 193 175 213 88 190 114 b 381 450 197 290 301 358 b 379 225 381 376 385 299 z m 772 635 b 726 582 772 604 756 582 l 564 582 b 675 825 567 650 578 825 b 772 635 769 825 771 721 z m 913 525 b 939 575 929 525 940 557 b 668 875 921 789 811 875 b 488 790 596 875 535 844 b 303 864 443 840 375 864 b 19 575 156 864 19 753 b 86 518 19 551 44 518 b 189 579 131 519 171 524 b 306 808 194 706 171 804 b 381 531 383 811 381 660 b 19 164 272 396 19 369 b 172 -18 19 44 82 -18 b 410 138 278 -18 347 63 b 679 -29 486 -19 624 -35 b 683 -29 681 -29 682 -29 b 936 260 858 -17 926 174 l 897 268 b 721 86 885 179 818 86 b 561 442 611 86 561 231 b 561 525 561 464 561 493 z "},"™":{"ha":843,"x_min":0,"x_max":0,"o":"m 253 646 l 253 676 b 228 682 246 676 233 675 b 219 790 219 703 219 765 l 219 1031 b 233 1129 219 1047 217 1129 b 292 1124 247 1129 281 1132 b 315 1049 300 1111 310 1065 l 340 1063 b 339 1138 340 1088 339 1113 b 358 1132 344 1138 354 1138 b 367 1003 367 1107 367 1032 l 367 801 b 360 681 367 771 367 708 b 333 676 354 675 340 676 l 333 646 l 442 646 l 443 676 b 417 682 435 676 422 675 b 410 817 408 713 410 782 b 410 1040 410 890 410 965 l 556 651 l 689 1057 l 689 817 b 682 682 689 783 690 710 b 656 676 676 675 663 676 l 656 646 l 822 646 l 822 676 b 796 682 815 676 801 675 b 789 785 789 703 789 761 l 789 1017 b 796 1132 789 1044 789 1107 b 822 1138 801 1139 815 1138 l 822 1168 l 683 1168 l 585 872 l 479 1168 l 1 1168 b -1 1063 1 1133 0 1097 l 25 1049 b 47 1124 29 1065 40 1111 b 106 1129 58 1132 93 1129 b 119 1015 124 1129 119 1033 l 119 808 b 113 682 119 775 121 711 b 86 676 107 675 94 676 l 86 646 z "},"¡":{"ha":372,"x_min":0,"x_max":0,"o":"m 192 -15 b 292 132 260 -15 292 53 b 215 904 292 382 221 542 l 171 904 b 93 132 168 542 93 385 b 192 -15 93 51 121 -15 z m 196 1003 b 278 1092 243 1003 278 1043 b 196 1183 278 1144 244 1183 b 114 1092 149 1183 114 1146 b 196 1003 114 1043 149 1003 z "},"¿":{"ha":529,"x_min":0,"x_max":0,"o":"m 331 931 l 282 931 l 283 888 b -17 264 285 667 -18 538 b 263 -17 -17 99 93 -17 b 508 194 392 -17 506 50 b 426 317 510 240 486 307 b 411 318 421 318 417 318 b 347 214 364 318 333 272 b 403 111 360 168 415 150 b 294 36 386 53 333 36 b 274 38 288 36 282 36 b 165 318 168 54 160 221 b 331 878 179 610 331 661 z m 304 1007 b 386 1097 350 1007 386 1047 b 304 1189 386 1149 351 1189 b 222 1097 257 1189 222 1150 b 304 1007 222 1047 257 1007 z "},"Ø":{"ha":863,"x_min":0,"x_max":0,"o":"m 588 794 b 594 589 592 732 594 663 b 431 26 594 275 551 25 b 286 285 354 28 308 129 z m 275 383 b 268 593 271 447 268 518 b 431 1133 268 904 310 1136 b 576 892 507 1132 553 1040 z m 192 124 b 431 -21 253 28 336 -21 b 776 592 625 -21 776 185 b 703 993 776 765 749 897 l 839 1224 l 771 1222 l 669 1050 b 431 1181 608 1139 524 1181 b 86 592 235 1181 86 999 b 158 185 86 419 113 285 l 24 -44 l 93 -44 z "},"ø":{"ha":656,"x_min":0,"x_max":0,"o":"m 214 208 b 204 433 206 274 204 351 b 328 833 204 658 219 833 b 433 703 385 833 417 785 z m 446 608 b 451 433 450 557 451 497 b 328 17 451 208 435 17 b 231 121 278 17 249 57 z m 183 17 b 328 -26 226 -11 275 -26 b 635 433 503 -26 635 136 b 526 792 635 601 593 719 l 600 956 l 544 956 l 488 826 b 328 876 442 860 388 876 b 21 433 150 876 21 731 b 143 50 21 256 68 125 l 81 -92 l 136 -90 z "},"À":{"ha":804,"x_min":0,"x_max":0,"o":"m 274 501 b 351 835 296 599 324 721 b 428 501 379 721 406 601 z m 440 444 b 461 349 447 408 454 375 b 510 53 475 285 522 101 b 433 32 506 39 453 33 l 433 0 l 785 0 l 785 32 b 728 53 765 33 738 39 b 636 349 693 101 650 285 l 451 1169 l 361 1169 l 176 349 b 85 53 163 285 119 101 b 22 32 74 39 42 33 l 24 0 l 251 0 l 251 32 b 190 53 233 33 193 39 b 239 349 176 101 225 285 b 261 444 244 374 251 406 z m 404 1489 b 347 1528 389 1514 368 1528 b 299 1501 331 1528 314 1519 b 322 1383 269 1467 286 1407 l 493 1268 l 522 1296 z "},"Ã":{"ha":804,"x_min":0,"x_max":0,"o":"m 274 501 b 351 835 296 599 324 721 b 428 501 379 721 406 601 z m 440 444 b 461 349 447 408 454 375 b 510 53 475 285 522 101 b 433 32 506 39 453 33 l 433 0 l 785 0 l 785 32 b 728 53 765 33 738 39 b 636 349 693 101 650 285 l 451 1169 l 361 1169 l 176 349 b 85 53 163 285 119 101 b 22 32 74 39 42 33 l 24 0 l 251 0 l 251 32 b 190 53 233 33 193 39 b 239 349 176 101 225 285 b 261 444 244 374 251 406 z m 490 1294 b 624 1464 571 1294 625 1394 l 611 1485 b 517 1404 585 1443 575 1407 b 304 1501 458 1400 379 1504 b 181 1326 232 1497 204 1392 l 196 1294 b 281 1392 208 1294 221 1389 b 490 1294 343 1392 410 1294 z "},"Õ":{"ha":735,"x_min":0,"x_max":0,"o":"m 531 589 b 367 26 531 275 488 25 b 204 593 246 28 204 278 b 367 1133 204 904 246 1136 b 531 589 488 1132 531 906 z m 367 1181 b 22 592 171 1181 22 999 b 367 -21 22 185 172 -21 b 713 592 561 -21 713 185 b 367 1181 713 1003 561 1181 z m 456 1294 b 589 1464 536 1294 590 1394 l 576 1485 b 482 1404 550 1443 540 1407 b 269 1501 424 1400 344 1504 b 146 1326 197 1497 169 1392 l 161 1294 b 246 1392 174 1294 186 1389 b 456 1294 308 1392 375 1294 z "},"ÿ":{"ha":751,"x_min":0,"x_max":0,"o":"m 354 -21 b 246 -115 333 -78 311 -115 b 189 -108 229 -115 211 -114 b 107 -168 161 -101 124 -119 b 126 -268 96 -203 100 -239 b 194 -299 149 -292 174 -299 b 449 106 339 -299 421 -4 b 669 763 511 315 618 649 b 754 807 690 806 732 806 l 756 840 l 492 840 l 492 807 b 564 747 528 806 569 797 b 442 310 554 671 499 488 l 311 736 b 369 807 301 771 318 801 l 369 840 l 10 840 l 10 807 b 124 724 65 806 96 797 b 354 -21 172 594 260 289 z m 429 1057 b 507 960 429 1007 460 960 b 586 1051 551 960 586 1001 b 507 1147 586 1103 554 1147 b 429 1057 460 1147 429 1111 z m 165 1057 b 243 960 165 1007 196 960 l 246 960 b 324 1051 288 960 324 1001 b 246 1147 324 1103 290 1147 b 165 1057 196 1147 165 1111 z "},"Ÿ":{"ha":788,"x_min":0,"x_max":0,"o":"m 504 529 b 722 1126 546 646 668 1089 b 774 1136 738 1136 757 1136 l 774 1169 l 543 1171 l 543 1138 b 607 1115 560 1138 603 1132 b 472 610 618 1061 539 804 b 304 1117 396 804 296 1076 b 349 1138 307 1133 333 1136 l 349 1169 l 14 1169 l 14 1138 b 75 1117 32 1136 60 1133 b 332 506 125 1067 257 697 b 311 53 333 294 339 101 b 257 32 301 36 274 33 l 258 0 l 579 0 l 579 32 b 526 53 563 33 536 36 b 504 529 497 103 501 265 z m 447 1417 b 525 1319 447 1367 478 1319 b 604 1411 569 1319 604 1361 b 525 1507 604 1463 572 1507 b 447 1417 478 1507 447 1471 z m 183 1417 b 261 1319 183 1367 214 1319 l 264 1319 b 342 1411 306 1319 342 1361 b 264 1507 342 1463 308 1507 b 183 1417 214 1507 183 1471 z "},"Â":{"ha":804,"x_min":0,"x_max":0,"o":"m 274 501 b 351 835 296 599 324 721 b 428 501 379 721 406 601 z m 440 444 b 461 349 447 408 454 375 b 510 53 475 285 522 101 b 433 32 506 39 453 33 l 433 0 l 785 0 l 785 32 b 728 53 765 33 738 39 b 636 349 693 101 650 285 l 451 1169 l 361 1169 l 176 349 b 85 53 163 285 119 101 b 22 32 74 39 42 33 l 24 0 l 251 0 l 251 32 b 190 53 233 33 193 39 b 239 349 176 101 225 285 b 261 444 244 374 251 406 z m 388 1519 b 354 1503 371 1519 364 1514 l 222 1343 b 214 1324 215 1335 214 1331 b 229 1272 214 1319 222 1272 b 260 1286 240 1272 250 1278 l 404 1411 l 547 1286 b 578 1272 557 1278 567 1272 b 592 1324 583 1272 592 1272 b 583 1343 592 1331 592 1335 l 453 1503 b 418 1519 443 1514 438 1519 z "},"Ê":{"ha":714,"x_min":0,"x_max":0,"o":"m 256 585 b 438 572 354 583 407 582 b 501 367 486 554 493 394 l 535 369 b 535 851 532 500 532 721 l 501 854 b 438 649 493 826 486 665 b 257 635 407 638 354 638 b 278 1088 257 828 265 1010 b 319 1122 281 1110 296 1122 b 528 1101 419 1119 501 1115 b 607 879 553 1085 597 907 l 639 889 b 633 1169 638 954 633 1096 l 11 1169 l 11 1138 b 64 1117 28 1136 54 1133 b 88 586 93 1067 88 800 b 64 53 88 372 93 103 b 11 32 54 36 28 33 l 11 0 l 263 0 l 649 -1 b 669 296 649 74 668 231 l 636 306 b 544 72 628 278 568 89 b 321 50 518 58 424 53 b 278 85 296 50 281 63 b 256 585 265 168 256 374 z m 342 1519 b 308 1503 325 1519 318 1514 l 176 1343 b 168 1324 169 1335 168 1331 b 183 1272 168 1319 176 1272 b 214 1286 194 1272 204 1278 l 358 1411 l 501 1286 b 532 1272 511 1278 521 1272 b 546 1324 538 1272 546 1272 b 538 1343 546 1331 546 1335 l 407 1503 b 372 1519 397 1514 392 1519 z "},"Á":{"ha":804,"x_min":0,"x_max":0,"o":"m 274 501 b 351 835 296 599 324 721 b 428 501 379 721 406 601 z m 440 444 b 461 349 447 408 454 375 b 510 53 475 285 522 101 b 433 32 506 39 453 33 l 433 0 l 785 0 l 785 32 b 728 53 765 33 738 39 b 636 349 693 101 650 285 l 451 1169 l 361 1169 l 176 349 b 85 53 163 285 119 101 b 22 32 74 39 42 33 l 24 0 l 251 0 l 251 32 b 190 53 233 33 193 39 b 239 349 176 101 225 285 b 261 444 244 374 251 406 z m 311 1265 l 483 1381 b 507 1499 518 1404 535 1465 b 457 1525 492 1517 474 1525 b 401 1486 436 1525 417 1511 l 283 1293 z "},"Ë":{"ha":714,"x_min":0,"x_max":0,"o":"m 256 585 b 438 572 354 583 407 582 b 501 367 486 554 493 394 l 535 369 b 535 851 532 500 532 721 l 501 854 b 438 649 493 826 486 665 b 257 635 407 638 354 638 b 278 1088 257 828 265 1010 b 319 1122 281 1110 296 1122 b 528 1101 419 1119 501 1115 b 607 879 553 1085 597 907 l 639 889 b 633 1169 638 954 633 1096 l 11 1169 l 11 1138 b 64 1117 28 1136 54 1133 b 88 586 93 1067 88 800 b 64 53 88 372 93 103 b 11 32 54 36 28 33 l 11 0 l 263 0 l 649 -1 b 669 296 649 74 668 231 l 636 306 b 544 72 628 278 568 89 b 321 50 518 58 424 53 b 278 85 296 50 281 63 b 256 585 265 168 256 374 z m 410 1417 b 488 1319 410 1367 440 1319 b 567 1411 532 1319 567 1361 b 488 1507 567 1463 535 1507 b 410 1417 440 1507 410 1471 z m 146 1417 b 224 1319 146 1367 176 1319 l 226 1319 b 304 1411 268 1319 304 1361 b 226 1507 304 1463 271 1507 b 146 1417 176 1507 146 1471 z "},"È":{"ha":714,"x_min":0,"x_max":0,"o":"m 256 585 b 438 572 354 583 407 582 b 501 367 486 554 493 394 l 535 369 b 535 851 532 500 532 721 l 501 854 b 438 649 493 826 486 665 b 257 635 407 638 354 638 b 278 1088 257 828 265 1010 b 319 1122 281 1110 296 1122 b 528 1101 419 1119 501 1115 b 607 879 553 1085 597 907 l 639 889 b 633 1169 638 954 633 1096 l 11 1169 l 11 1138 b 64 1117 28 1136 54 1133 b 88 586 93 1067 88 800 b 64 53 88 372 93 103 b 11 32 54 36 28 33 l 11 0 l 263 0 l 649 -1 b 669 296 649 74 668 231 l 636 306 b 544 72 628 278 568 89 b 321 50 518 58 424 53 b 278 85 296 50 281 63 b 256 585 265 168 256 374 z m 476 1296 l 358 1489 b 301 1528 343 1514 322 1528 b 253 1501 285 1528 268 1519 b 276 1383 224 1467 240 1407 l 447 1268 z "},"Í":{"ha":342,"x_min":0,"x_max":0,"o":"m 10 1138 b 63 1115 26 1136 53 1132 b 86 585 93 1065 86 776 b 63 54 86 369 93 106 b 10 31 53 38 26 32 l 10 0 l 331 0 l 331 33 b 278 54 314 33 288 38 b 256 582 246 107 256 367 b 278 1115 256 781 246 1063 b 331 1138 288 1132 314 1136 l 331 1169 l 10 1169 z m 53 1293 l 81 1265 l 253 1381 b 276 1499 288 1404 304 1465 b 226 1525 261 1517 243 1525 b 171 1486 206 1525 186 1511 z "},"Î":{"ha":342,"x_min":0,"x_max":0,"o":"m 10 1138 b 63 1115 26 1136 53 1132 b 86 585 93 1065 86 776 b 63 54 86 369 93 106 b 10 31 53 38 26 32 l 10 0 l 331 0 l 331 33 b 278 54 314 33 288 38 b 256 582 246 107 256 367 b 278 1115 256 781 246 1063 b 331 1138 288 1132 314 1136 l 331 1169 l 10 1169 z m 156 1519 b 122 1503 139 1519 132 1514 l -10 1343 b -18 1324 -17 1335 -18 1331 b -3 1272 -18 1319 -10 1272 b 28 1286 8 1272 18 1278 l 172 1411 l 315 1286 b 346 1272 325 1278 335 1272 b 360 1324 351 1272 360 1272 b 351 1343 360 1331 360 1335 l 221 1503 b 186 1519 211 1514 206 1519 z "},"Ï":{"ha":342,"x_min":0,"x_max":0,"o":"m 10 1138 b 63 1115 26 1136 53 1132 b 86 585 93 1065 86 776 b 63 54 86 369 93 106 b 10 31 53 38 26 32 l 10 0 l 331 0 l 331 33 b 278 54 314 33 288 38 b 256 582 246 107 256 367 b 278 1115 256 781 246 1063 b 331 1138 288 1132 314 1136 l 331 1169 l 10 1169 z m 224 1417 b 301 1319 224 1367 254 1319 b 381 1411 346 1319 381 1361 b 301 1507 381 1463 349 1507 b 224 1417 254 1507 224 1471 z m -40 1417 b 38 1319 -40 1367 -10 1319 l 40 1319 b 118 1411 82 1319 118 1361 b 40 1507 118 1463 85 1507 b -40 1417 -10 1507 -40 1471 z "},"Ì":{"ha":342,"x_min":0,"x_max":0,"o":"m 10 1138 b 63 1115 26 1136 53 1132 b 86 585 93 1065 86 776 b 63 54 86 369 93 106 b 10 31 53 38 26 32 l 10 0 l 331 0 l 331 33 b 278 54 314 33 288 38 b 256 582 246 107 256 367 b 278 1115 256 781 246 1063 b 331 1138 288 1132 314 1136 l 331 1169 l 10 1169 z m 290 1296 l 172 1489 b 115 1528 157 1514 136 1528 b 67 1501 99 1528 82 1519 b 90 1383 38 1467 54 1407 l 261 1268 z "},"Ó":{"ha":735,"x_min":0,"x_max":0,"o":"m 531 589 b 367 26 531 275 488 25 b 204 593 246 28 204 278 b 367 1133 204 904 246 1136 b 531 589 488 1132 531 906 z m 367 1181 b 22 592 171 1181 22 999 b 367 -21 22 185 172 -21 b 713 592 561 -21 713 185 b 367 1181 713 1003 561 1181 z m 276 1265 l 449 1381 b 472 1499 483 1404 500 1465 b 422 1525 457 1517 439 1525 b 367 1486 401 1525 382 1511 l 249 1293 z "},"Ô":{"ha":735,"x_min":0,"x_max":0,"o":"m 531 589 b 367 26 531 275 488 25 b 204 593 246 28 204 278 b 367 1133 204 904 246 1136 b 531 589 488 1132 531 906 z m 367 1181 b 22 592 171 1181 22 999 b 367 -21 22 185 172 -21 b 713 592 561 -21 713 185 b 367 1181 713 1003 561 1181 z m 353 1519 b 319 1503 336 1519 329 1514 l 188 1343 b 179 1324 181 1335 179 1331 b 194 1272 179 1319 188 1272 b 225 1286 206 1272 215 1278 l 369 1411 l 513 1286 b 543 1272 522 1278 532 1272 b 557 1324 549 1272 557 1272 b 549 1343 557 1331 557 1335 l 418 1503 b 383 1519 408 1514 403 1519 z "},"Ò":{"ha":735,"x_min":0,"x_max":0,"o":"m 531 589 b 367 26 531 275 488 25 b 204 593 246 28 204 278 b 367 1133 204 904 246 1136 b 531 589 488 1132 531 906 z m 367 1181 b 22 592 171 1181 22 999 b 367 -21 22 185 172 -21 b 713 592 561 -21 713 185 b 367 1181 713 1003 561 1181 z m 369 1489 b 313 1528 354 1514 333 1528 b 264 1501 296 1528 279 1519 b 288 1383 235 1467 251 1407 l 458 1268 l 488 1296 z "},"Ú":{"ha":767,"x_min":0,"x_max":0,"o":"m 93 585 b 388 -19 93 311 75 -19 b 675 582 694 -19 675 313 b 674 747 675 633 674 690 b 697 1117 672 917 674 1076 b 750 1138 707 1133 733 1136 l 750 1169 l 542 1169 l 542 1138 b 594 1117 558 1136 585 1133 b 619 715 618 1076 621 892 b 619 585 619 669 619 624 b 590 197 619 433 618 300 b 428 50 569 114 522 50 b 260 582 242 50 260 374 b 282 1117 260 781 250 1064 b 333 1138 292 1133 317 1136 l 333 1169 l 17 1169 l 17 1138 b 71 1117 33 1136 60 1133 b 93 585 100 1067 93 776 z m 342 1276 l 369 1249 l 542 1364 b 565 1482 576 1388 593 1449 b 515 1508 550 1500 532 1508 b 460 1469 494 1508 475 1494 z "},"Û":{"ha":767,"x_min":0,"x_max":0,"o":"m 93 585 b 388 -19 93 311 75 -19 b 675 582 694 -19 675 313 b 674 747 675 633 674 690 b 697 1117 672 917 674 1076 b 750 1138 707 1133 733 1136 l 750 1169 l 542 1169 l 542 1138 b 594 1117 558 1136 585 1133 b 619 715 618 1076 621 892 b 619 585 619 669 619 624 b 590 197 619 433 618 300 b 428 50 569 114 522 50 b 260 582 242 50 260 374 b 282 1117 260 781 250 1064 b 333 1138 292 1133 317 1136 l 333 1169 l 17 1169 l 17 1138 b 71 1117 33 1136 60 1133 b 93 585 100 1067 93 776 z m 368 1519 b 335 1503 351 1519 344 1514 l 203 1343 b 194 1324 196 1335 194 1331 b 210 1272 194 1319 203 1272 b 240 1286 221 1272 231 1278 l 385 1411 l 528 1286 b 558 1272 538 1278 547 1272 b 572 1324 564 1272 572 1272 b 564 1343 572 1331 572 1335 l 433 1503 b 399 1519 424 1514 418 1519 z "},"Ù":{"ha":767,"x_min":0,"x_max":0,"o":"m 93 585 b 388 -19 93 311 75 -19 b 675 582 694 -19 675 313 b 674 747 675 633 674 690 b 697 1117 672 917 674 1076 b 750 1138 707 1133 733 1136 l 750 1169 l 542 1169 l 542 1138 b 594 1117 558 1136 585 1133 b 619 715 618 1076 621 892 b 619 585 619 669 619 624 b 590 197 619 433 618 300 b 428 50 569 114 522 50 b 260 582 242 50 260 374 b 282 1117 260 781 250 1064 b 333 1138 292 1133 317 1136 l 333 1169 l 17 1169 l 17 1138 b 71 1117 33 1136 60 1133 b 93 585 100 1067 93 776 z m 503 1296 l 385 1489 b 328 1528 369 1514 349 1528 b 279 1501 311 1528 294 1519 b 303 1383 250 1467 267 1407 l 474 1268 z "},"ﬁ":{"ha":717,"x_min":0,"x_max":0,"o":"m 383 807 b 449 782 408 799 433 807 b 472 349 475 718 472 536 b 451 53 472 285 474 101 b 400 32 444 39 418 33 l 400 0 l 706 0 l 706 32 b 654 53 686 33 661 39 b 635 349 632 101 635 285 l 638 850 b 385 843 571 850 457 842 l 257 843 b 350 1136 254 1011 257 1136 b 425 1010 413 1136 424 1058 b 521 908 425 956 463 908 b 614 1028 578 908 624 958 b 381 1178 599 1132 489 1178 b 94 843 153 1178 97 1042 l 10 843 l 8 807 l 94 807 b 94 792 94 801 94 796 b 96 531 94 704 96 618 l 96 349 b 75 53 96 285 99 101 b 24 32 68 39 42 33 l 24 0 l 328 0 l 328 32 b 276 53 310 33 283 39 b 256 349 253 101 256 285 l 257 807 z "},"ﬂ":{"ha":744,"x_min":0,"x_max":0,"o":"m 656 1169 b 286 1165 589 1169 333 1168 b 93 843 115 1160 96 992 l 8 843 l 7 807 l 93 807 b 93 792 93 801 93 796 b 94 531 93 704 94 618 l 94 349 b 74 39 94 285 97 88 b 22 18 67 24 40 19 l 22 0 l 331 0 l 331 18 b 279 39 313 19 286 24 b 258 349 256 88 258 285 b 260 807 260 499 260 657 l 386 807 l 388 843 l 260 843 b 356 1121 257 1035 286 1110 b 393 1124 369 1124 382 1124 b 489 1015 481 1124 483 1061 b 500 349 501 847 500 499 b 479 53 500 285 503 101 b 428 32 472 39 446 33 l 428 0 l 736 0 l 736 32 b 685 53 718 33 692 39 b 664 349 661 101 664 285 l 667 1171 b 656 1169 663 1171 660 1171 z "},"€":{"ha":786,"x_min":0,"x_max":0,"o":"m 21 485 l 107 485 b 447 -21 131 149 271 -21 b 765 319 593 -21 713 93 l 608 332 b 447 26 585 149 533 25 b 275 485 340 28 286 222 l 654 485 l 654 536 l 274 536 b 272 593 272 554 272 574 b 272 640 272 610 272 625 l 654 640 l 654 692 l 275 692 b 447 1133 285 953 339 1135 b 610 836 533 1133 586 1017 l 764 869 b 447 1181 710 1085 590 1181 b 106 692 268 1181 129 1029 l 21 692 l 21 640 l 104 640 b 103 592 103 625 103 608 b 104 536 103 572 103 554 l 21 536 z "},"·":{"ha":528,"x_min":0,"x_max":0,"o":"m 265 642 b 163 533 207 642 163 593 b 265 424 163 472 207 424 b 365 532 322 424 365 471 b 265 642 365 593 322 642 z "}}}
